%TF.GenerationSoftware,KiCad,Pcbnew,8.0.2*%
%TF.CreationDate,2024-06-24T20:47:35+02:00*%
%TF.ProjectId,Ampel3,416d7065-6c33-42e6-9b69-6361645f7063,rev?*%
%TF.SameCoordinates,Original*%
%TF.FileFunction,Copper,L1,Top*%
%TF.FilePolarity,Positive*%
%FSLAX46Y46*%
G04 Gerber Fmt 4.6, Leading zero omitted, Abs format (unit mm)*
G04 Created by KiCad (PCBNEW 8.0.2) date 2024-06-24 20:47:35*
%MOMM*%
%LPD*%
G01*
G04 APERTURE LIST*
%TA.AperFunction,ComponentPad*%
%ADD10C,1.600000*%
%TD*%
%TA.AperFunction,ComponentPad*%
%ADD11O,1.600000X1.600000*%
%TD*%
%TA.AperFunction,ComponentPad*%
%ADD12R,1.600000X1.600000*%
%TD*%
%TA.AperFunction,ComponentPad*%
%ADD13R,2.000000X2.000000*%
%TD*%
%TA.AperFunction,ComponentPad*%
%ADD14C,2.000000*%
%TD*%
%TA.AperFunction,ComponentPad*%
%ADD15R,1.800000X1.800000*%
%TD*%
%TA.AperFunction,ComponentPad*%
%ADD16C,1.800000*%
%TD*%
%TA.AperFunction,ComponentPad*%
%ADD17R,1.700000X1.700000*%
%TD*%
%TA.AperFunction,ComponentPad*%
%ADD18O,1.700000X1.700000*%
%TD*%
%TA.AperFunction,Conductor*%
%ADD19C,0.500000*%
%TD*%
G04 APERTURE END LIST*
D10*
%TO.P,R2,1*%
%TO.N,GP28*%
X89370000Y-77940000D03*
D11*
%TO.P,R2,2*%
%TO.N,GND*%
X89370000Y-88100000D03*
%TD*%
D12*
%TO.P,RN1,1,R1*%
%TO.N,GND*%
X84290000Y-100800000D03*
D11*
%TO.P,RN1,2,R1.2*%
%TO.N,Net-(D3-K)*%
X84290000Y-98260000D03*
%TO.P,RN1,3,R2.2*%
%TO.N,Net-(D7-K)*%
X84290000Y-95720000D03*
%TO.P,RN1,4,R3.2*%
%TO.N,Net-(D2-K)*%
X84290000Y-93180000D03*
%TO.P,RN1,5,R4.2*%
%TO.N,Net-(D4-K)*%
X84290000Y-90640000D03*
%TO.P,RN1,6,R5.2*%
%TO.N,Net-(D6-K)*%
X84290000Y-88100000D03*
%TO.P,RN1,7,R6.2*%
%TO.N,Net-(D1-K)*%
X84290000Y-85560000D03*
%TO.P,RN1,8,R7.2*%
%TO.N,Net-(D5-K)*%
X84290000Y-83020000D03*
%TD*%
D13*
%TO.P,BZ1,1,+*%
%TO.N,GP15*%
X69050000Y-60720000D03*
D14*
%TO.P,BZ1,2,-*%
%TO.N,Net-(BZ1--)*%
X69050000Y-67220000D03*
%TD*%
D15*
%TO.P,D3,1,K*%
%TO.N,Net-(D3-K)*%
X60160000Y-98260000D03*
D16*
%TO.P,D3,2,A*%
%TO.N,GP18*%
X60160000Y-95720000D03*
%TD*%
D15*
%TO.P,T2,1,C*%
%TO.N,+3V3*%
X96990000Y-83020000D03*
D16*
%TO.P,T2,2,E*%
%TO.N,GP28*%
X96990000Y-80480000D03*
%TD*%
D17*
%TO.P,Pico_R1,1,Pin_1*%
%TO.N,unconnected-(Pico_R1-Pin_1-Pad1)*%
X103340000Y-72860000D03*
D18*
%TO.P,Pico_R1,2,Pin_2*%
%TO.N,unconnected-(Pico_R1-Pin_2-Pad2)*%
X100800000Y-72860000D03*
%TO.P,Pico_R1,3,Pin_3*%
%TO.N,GND*%
X98260000Y-72860000D03*
%TO.P,Pico_R1,4,Pin_4*%
%TO.N,unconnected-(Pico_R1-Pin_4-Pad4)*%
X95720000Y-72860000D03*
%TO.P,Pico_R1,5,Pin_5*%
%TO.N,+3V3*%
X93180000Y-72860000D03*
%TO.P,Pico_R1,6,Pin_6*%
%TO.N,unconnected-(Pico_R1-Pin_6-Pad6)*%
X90640000Y-72860000D03*
%TO.P,Pico_R1,7,Pin_7*%
%TO.N,GP28*%
X88100000Y-72860000D03*
%TO.P,Pico_R1,8,Pin_8*%
%TO.N,GND*%
X85560000Y-72860000D03*
%TO.P,Pico_R1,9,Pin_9*%
%TO.N,GP27*%
X83020000Y-72860000D03*
%TO.P,Pico_R1,10,Pin_10*%
%TO.N,GP26*%
X80480000Y-72860000D03*
%TO.P,Pico_R1,11,Pin_11*%
%TO.N,unconnected-(Pico_R1-Pin_11-Pad11)*%
X77940000Y-72860000D03*
%TO.P,Pico_R1,12,Pin_12*%
%TO.N,GP22*%
X75400000Y-72860000D03*
%TO.P,Pico_R1,13,Pin_13*%
%TO.N,GND*%
X72860000Y-72860000D03*
%TO.P,Pico_R1,14,Pin_14*%
%TO.N,GP21*%
X70320000Y-72860000D03*
%TO.P,Pico_R1,15,Pin_15*%
%TO.N,GP20*%
X67780000Y-72860000D03*
%TO.P,Pico_R1,16,Pin_16*%
%TO.N,GP19*%
X65240000Y-72860000D03*
%TO.P,Pico_R1,17,Pin_17*%
%TO.N,GP18*%
X62700000Y-72860000D03*
%TO.P,Pico_R1,18,Pin_18*%
%TO.N,GND*%
X60160000Y-72860000D03*
%TO.P,Pico_R1,19,Pin_19*%
%TO.N,GP17*%
X57620000Y-72860000D03*
%TO.P,Pico_R1,20,Pin_20*%
%TO.N,GP16*%
X55080000Y-72860000D03*
%TD*%
D15*
%TO.P,D2,1,K*%
%TO.N,Net-(D2-K)*%
X60160000Y-90640000D03*
D16*
%TO.P,D2,2,A*%
%TO.N,GP17*%
X60160000Y-88100000D03*
%TD*%
D15*
%TO.P,D5,1,K*%
%TO.N,Net-(D5-K)*%
X75400000Y-83020000D03*
D16*
%TO.P,D5,2,A*%
%TO.N,GP20*%
X75400000Y-80480000D03*
%TD*%
D10*
%TO.P,R3,1*%
%TO.N,Net-(BZ1--)*%
X77940000Y-69050000D03*
D11*
%TO.P,R3,2*%
%TO.N,GND*%
X77940000Y-58890000D03*
%TD*%
D17*
%TO.P,Pico_L1,1,Pin_1*%
%TO.N,unconnected-(Pico_L1-Pin_1-Pad1)*%
X103340000Y-55080000D03*
D18*
%TO.P,Pico_L1,2,Pin_2*%
%TO.N,unconnected-(Pico_L1-Pin_2-Pad2)*%
X100800000Y-55080000D03*
%TO.P,Pico_L1,3,Pin_3*%
%TO.N,GND*%
X98260000Y-55080000D03*
%TO.P,Pico_L1,4,Pin_4*%
%TO.N,unconnected-(Pico_L1-Pin_4-Pad4)*%
X95720000Y-55080000D03*
%TO.P,Pico_L1,5,Pin_5*%
%TO.N,unconnected-(Pico_L1-Pin_5-Pad5)*%
X93180000Y-55080000D03*
%TO.P,Pico_L1,6,Pin_6*%
%TO.N,unconnected-(Pico_L1-Pin_6-Pad6)*%
X90640000Y-55080000D03*
%TO.P,Pico_L1,7,Pin_7*%
%TO.N,unconnected-(Pico_L1-Pin_7-Pad7)*%
X88100000Y-55080000D03*
%TO.P,Pico_L1,8,Pin_8*%
%TO.N,GND*%
X85560000Y-55080000D03*
%TO.P,Pico_L1,9,Pin_9*%
%TO.N,unconnected-(Pico_L1-Pin_9-Pad9)*%
X83020000Y-55080000D03*
%TO.P,Pico_L1,10,Pin_10*%
%TO.N,unconnected-(Pico_L1-Pin_10-Pad10)*%
X80480000Y-55080000D03*
%TO.P,Pico_L1,11,Pin_11*%
%TO.N,unconnected-(Pico_L1-Pin_11-Pad11)*%
X77940000Y-55080000D03*
%TO.P,Pico_L1,12,Pin_12*%
%TO.N,unconnected-(Pico_L1-Pin_12-Pad12)*%
X75400000Y-55080000D03*
%TO.P,Pico_L1,13,Pin_13*%
%TO.N,GND*%
X72860000Y-55080000D03*
%TO.P,Pico_L1,14,Pin_14*%
%TO.N,unconnected-(Pico_L1-Pin_14-Pad14)*%
X70320000Y-55080000D03*
%TO.P,Pico_L1,15,Pin_15*%
%TO.N,unconnected-(Pico_L1-Pin_15-Pad15)*%
X67780000Y-55080000D03*
%TO.P,Pico_L1,16,Pin_16*%
%TO.N,unconnected-(Pico_L1-Pin_16-Pad16)*%
X65240000Y-55080000D03*
%TO.P,Pico_L1,17,Pin_17*%
%TO.N,unconnected-(Pico_L1-Pin_17-Pad17)*%
X62700000Y-55080000D03*
%TO.P,Pico_L1,18,Pin_18*%
%TO.N,GND*%
X60160000Y-55080000D03*
%TO.P,Pico_L1,19,Pin_19*%
%TO.N,unconnected-(Pico_L1-Pin_19-Pad19)*%
X57620000Y-55080000D03*
%TO.P,Pico_L1,20,Pin_20*%
%TO.N,GP15*%
X55080000Y-55080000D03*
%TD*%
D15*
%TO.P,D6,1,K*%
%TO.N,Net-(D6-K)*%
X75400000Y-90640000D03*
D16*
%TO.P,D6,2,A*%
%TO.N,GP21*%
X75400000Y-88100000D03*
%TD*%
D15*
%TO.P,D7,1,K*%
%TO.N,Net-(D7-K)*%
X75400000Y-98260000D03*
D16*
%TO.P,D7,2,A*%
%TO.N,GP22*%
X75400000Y-95720000D03*
%TD*%
D15*
%TO.P,D1,1,K*%
%TO.N,Net-(D1-K)*%
X60160000Y-83020000D03*
D16*
%TO.P,D1,2,A*%
%TO.N,GP16*%
X60160000Y-80480000D03*
%TD*%
D14*
%TO.P,SW1,1,1*%
%TO.N,+3V3*%
X93740000Y-96990000D03*
X100240000Y-96990000D03*
%TO.P,SW1,2,2*%
%TO.N,GP26*%
X93740000Y-101490000D03*
X100240000Y-101490000D03*
%TD*%
D15*
%TO.P,D4,1,K*%
%TO.N,Net-(D4-K)*%
X67780000Y-90640000D03*
D16*
%TO.P,D4,2,A*%
%TO.N,GP19*%
X67780000Y-88100000D03*
%TD*%
D12*
%TO.P,IC1,1,VCC*%
%TO.N,+3V3*%
X96730000Y-89370000D03*
D10*
%TO.P,IC1,2,GND*%
%TO.N,GND*%
X94190000Y-90640000D03*
D11*
%TO.P,IC1,3,VOUT*%
%TO.N,GP27*%
X96730000Y-91910000D03*
%TD*%
D10*
%TO.P,R1,1*%
%TO.N,GP26*%
X89370000Y-91910000D03*
D11*
%TO.P,R1,2*%
%TO.N,GND*%
X89370000Y-102070000D03*
%TD*%
D19*
%TO.N,+3V3*%
X96990000Y-89110000D02*
X96730000Y-89370000D01*
%TO.N,GP16*%
X55080000Y-75400000D02*
X60160000Y-80480000D01*
X55080000Y-72860000D02*
X55080000Y-75400000D01*
%TO.N,GP21*%
X70320000Y-76670000D02*
X71590000Y-77940000D01*
X70320000Y-72860000D02*
X70320000Y-76670000D01*
X76670000Y-77940000D02*
X77940000Y-79210000D01*
X77940000Y-85560000D02*
X75400000Y-88100000D01*
X71590000Y-77940000D02*
X76670000Y-77940000D01*
X77940000Y-79210000D02*
X77940000Y-85560000D01*
%TO.N,GP17*%
X62700000Y-85560000D02*
X60160000Y-88100000D01*
X57620000Y-75400000D02*
X62700000Y-80480000D01*
X62700000Y-80480000D02*
X62700000Y-85560000D01*
X57620000Y-72860000D02*
X57620000Y-75400000D01*
%TO.N,GP20*%
X70320000Y-80480000D02*
X75400000Y-80480000D01*
X67780000Y-77940000D02*
X70320000Y-80480000D01*
X67780000Y-72860000D02*
X67780000Y-77940000D01*
%TO.N,GP19*%
X65240000Y-85560000D02*
X67780000Y-88100000D01*
X65240000Y-72860000D02*
X65240000Y-85560000D01*
%TO.N,GP22*%
X79210000Y-79065786D02*
X79210000Y-91910000D01*
X75400000Y-72860000D02*
X75400000Y-75255786D01*
X75400000Y-75255786D02*
X79210000Y-79065786D01*
X79210000Y-91910000D02*
X75400000Y-95720000D01*
%TO.N,GP18*%
X62700000Y-72860000D02*
X62700000Y-75400000D01*
X62700000Y-75400000D02*
X63970000Y-76670000D01*
X63970000Y-76670000D02*
X63970000Y-91910000D01*
X63970000Y-91910000D02*
X60160000Y-95720000D01*
%TO.N,GP26*%
X91910000Y-99660000D02*
X93740000Y-101490000D01*
X87820000Y-90360000D02*
X89370000Y-91910000D01*
X80480000Y-75544214D02*
X87820000Y-82884214D01*
X80480000Y-72860000D02*
X80480000Y-75544214D01*
X91910000Y-94450000D02*
X91910000Y-99660000D01*
X89370000Y-91910000D02*
X91910000Y-94450000D01*
X87820000Y-82884214D02*
X87820000Y-90360000D01*
X93740000Y-101490000D02*
X100240000Y-101490000D01*
%TO.N,GP27*%
X95930001Y-92709999D02*
X96730000Y-91910000D01*
X93979999Y-92709999D02*
X95930001Y-92709999D01*
X83020000Y-75400000D02*
X91910000Y-84290000D01*
X97290000Y-91910000D02*
X96730000Y-91910000D01*
X91910000Y-90640000D02*
X93979999Y-92709999D01*
X83020000Y-72860000D02*
X83020000Y-75400000D01*
X91910000Y-84290000D02*
X91910000Y-90640000D01*
%TD*%
%TA.AperFunction,Conductor*%
%TO.N,GND*%
G36*
X95269024Y-91365471D02*
G01*
X95294140Y-91329602D01*
X95348717Y-91285978D01*
X95418216Y-91278785D01*
X95480570Y-91310307D01*
X95515984Y-91370537D01*
X95513213Y-91440352D01*
X95508100Y-91453124D01*
X95503264Y-91463495D01*
X95503258Y-91463511D01*
X95444366Y-91683302D01*
X95444364Y-91683312D01*
X95430104Y-91846307D01*
X95404651Y-91911375D01*
X95348060Y-91952354D01*
X95306576Y-91959499D01*
X94965318Y-91959499D01*
X94898279Y-91939814D01*
X94852524Y-91887010D01*
X94842580Y-91817852D01*
X94871605Y-91754296D01*
X94894193Y-91733925D01*
X94915471Y-91719024D01*
X94236447Y-91040000D01*
X94242661Y-91040000D01*
X94344394Y-91012741D01*
X94435606Y-90960080D01*
X94510080Y-90885606D01*
X94562741Y-90794394D01*
X94590000Y-90692661D01*
X94590000Y-90686447D01*
X95269024Y-91365471D01*
G37*
%TD.AperFunction*%
%TA.AperFunction,Conductor*%
G36*
X60410000Y-74190633D02*
G01*
X60623483Y-74133433D01*
X60623492Y-74133429D01*
X60837578Y-74033600D01*
X61031082Y-73898105D01*
X61198105Y-73731082D01*
X61328119Y-73545405D01*
X61382696Y-73501781D01*
X61452195Y-73494588D01*
X61514549Y-73526110D01*
X61531269Y-73545405D01*
X61661505Y-73731401D01*
X61661506Y-73731402D01*
X61828595Y-73898492D01*
X61828598Y-73898494D01*
X61828599Y-73898495D01*
X61896623Y-73946125D01*
X61940248Y-74000701D01*
X61949500Y-74047700D01*
X61949500Y-75473918D01*
X61949500Y-75473920D01*
X61949499Y-75473920D01*
X61978340Y-75618907D01*
X61978343Y-75618917D01*
X62034913Y-75755490D01*
X62034917Y-75755497D01*
X62040011Y-75763120D01*
X62040013Y-75763126D01*
X62040014Y-75763126D01*
X62117046Y-75878414D01*
X62117052Y-75878421D01*
X63183181Y-76944548D01*
X63216666Y-77005871D01*
X63219500Y-77032229D01*
X63219500Y-79638770D01*
X63199815Y-79705809D01*
X63147011Y-79751564D01*
X63077853Y-79761508D01*
X63014297Y-79732483D01*
X63007819Y-79726451D01*
X58406819Y-75125451D01*
X58373334Y-75064128D01*
X58370500Y-75037770D01*
X58370500Y-74047700D01*
X58390185Y-73980661D01*
X58423375Y-73946126D01*
X58491401Y-73898495D01*
X58658495Y-73731401D01*
X58788730Y-73545405D01*
X58843307Y-73501781D01*
X58912805Y-73494587D01*
X58975160Y-73526110D01*
X58991879Y-73545405D01*
X59121890Y-73731078D01*
X59288917Y-73898105D01*
X59482421Y-74033600D01*
X59696507Y-74133429D01*
X59696516Y-74133433D01*
X59910000Y-74190634D01*
X59910000Y-73293012D01*
X59967007Y-73325925D01*
X60094174Y-73360000D01*
X60225826Y-73360000D01*
X60352993Y-73325925D01*
X60410000Y-73293012D01*
X60410000Y-74190633D01*
G37*
%TD.AperFunction*%
%TA.AperFunction,Conductor*%
G36*
X73110000Y-74190633D02*
G01*
X73323483Y-74133433D01*
X73323492Y-74133429D01*
X73537578Y-74033600D01*
X73731082Y-73898105D01*
X73898105Y-73731082D01*
X74028119Y-73545405D01*
X74082696Y-73501781D01*
X74152195Y-73494588D01*
X74214549Y-73526110D01*
X74231269Y-73545405D01*
X74361505Y-73731401D01*
X74361506Y-73731402D01*
X74528595Y-73898492D01*
X74528598Y-73898494D01*
X74528599Y-73898495D01*
X74596623Y-73946125D01*
X74640248Y-74000701D01*
X74649500Y-74047700D01*
X74649500Y-75329704D01*
X74649500Y-75329706D01*
X74649499Y-75329706D01*
X74678340Y-75474693D01*
X74678343Y-75474703D01*
X74734911Y-75611273D01*
X74734915Y-75611279D01*
X74734916Y-75611281D01*
X74739492Y-75618129D01*
X74739493Y-75618132D01*
X74739494Y-75618132D01*
X74817051Y-75734206D01*
X74817052Y-75734207D01*
X76060665Y-76977819D01*
X76094150Y-77039142D01*
X76089166Y-77108834D01*
X76047294Y-77164767D01*
X75981830Y-77189184D01*
X75972984Y-77189500D01*
X71952229Y-77189500D01*
X71885190Y-77169815D01*
X71864548Y-77153181D01*
X71106819Y-76395451D01*
X71073334Y-76334128D01*
X71070500Y-76307770D01*
X71070500Y-74047700D01*
X71090185Y-73980661D01*
X71123375Y-73946126D01*
X71191401Y-73898495D01*
X71358495Y-73731401D01*
X71488730Y-73545405D01*
X71543307Y-73501781D01*
X71612805Y-73494587D01*
X71675160Y-73526110D01*
X71691879Y-73545405D01*
X71821890Y-73731078D01*
X71988917Y-73898105D01*
X72182421Y-74033600D01*
X72396507Y-74133429D01*
X72396516Y-74133433D01*
X72610000Y-74190634D01*
X72610000Y-73293012D01*
X72667007Y-73325925D01*
X72794174Y-73360000D01*
X72925826Y-73360000D01*
X73052993Y-73325925D01*
X73110000Y-73293012D01*
X73110000Y-74190633D01*
G37*
%TD.AperFunction*%
%TA.AperFunction,Conductor*%
G36*
X107862539Y-50520185D02*
G01*
X107908294Y-50572989D01*
X107919500Y-50624500D01*
X107919500Y-106578100D01*
X107899815Y-106645139D01*
X107847011Y-106690894D01*
X107795500Y-106702100D01*
X50624500Y-106702100D01*
X50557461Y-106682415D01*
X50511706Y-106629611D01*
X50500500Y-106578100D01*
X50500500Y-72859999D01*
X53724341Y-72859999D01*
X53724341Y-72860000D01*
X53744936Y-73095403D01*
X53744938Y-73095413D01*
X53806094Y-73323655D01*
X53806096Y-73323659D01*
X53806097Y-73323663D01*
X53885801Y-73494588D01*
X53905965Y-73537830D01*
X53905967Y-73537834D01*
X54014281Y-73692521D01*
X54041504Y-73731400D01*
X54041506Y-73731402D01*
X54208595Y-73898492D01*
X54208598Y-73898494D01*
X54208599Y-73898495D01*
X54276623Y-73946125D01*
X54320248Y-74000701D01*
X54329500Y-74047700D01*
X54329500Y-75473918D01*
X54329500Y-75473920D01*
X54329499Y-75473920D01*
X54358340Y-75618907D01*
X54358343Y-75618917D01*
X54414913Y-75755490D01*
X54414917Y-75755497D01*
X54420011Y-75763120D01*
X54420013Y-75763126D01*
X54420014Y-75763126D01*
X54497046Y-75878414D01*
X54497052Y-75878421D01*
X58742930Y-80124298D01*
X58776415Y-80185621D01*
X58775456Y-80242415D01*
X58773865Y-80248697D01*
X58754700Y-80479993D01*
X58754700Y-80480006D01*
X58773864Y-80711297D01*
X58773866Y-80711308D01*
X58830842Y-80936300D01*
X58924075Y-81148848D01*
X59051016Y-81343147D01*
X59051019Y-81343151D01*
X59051021Y-81343153D01*
X59145803Y-81446114D01*
X59176724Y-81508767D01*
X59168864Y-81578193D01*
X59124716Y-81632348D01*
X59097906Y-81646277D01*
X59017669Y-81676203D01*
X59017664Y-81676206D01*
X58902455Y-81762452D01*
X58902452Y-81762455D01*
X58816206Y-81877664D01*
X58816202Y-81877671D01*
X58765908Y-82012517D01*
X58765109Y-82019954D01*
X58759501Y-82072123D01*
X58759500Y-82072135D01*
X58759500Y-83967870D01*
X58759501Y-83967876D01*
X58765908Y-84027483D01*
X58816202Y-84162328D01*
X58816206Y-84162335D01*
X58902452Y-84277544D01*
X58902455Y-84277547D01*
X59017664Y-84363793D01*
X59017671Y-84363797D01*
X59152517Y-84414091D01*
X59152516Y-84414091D01*
X59159444Y-84414835D01*
X59212127Y-84420500D01*
X61107872Y-84420499D01*
X61167483Y-84414091D01*
X61302331Y-84363796D01*
X61417546Y-84277546D01*
X61503796Y-84162331D01*
X61554091Y-84027483D01*
X61560500Y-83967873D01*
X61560499Y-82072128D01*
X61554091Y-82012517D01*
X61508183Y-81889432D01*
X61503797Y-81877671D01*
X61503793Y-81877664D01*
X61417547Y-81762455D01*
X61417544Y-81762452D01*
X61302335Y-81676206D01*
X61302328Y-81676202D01*
X61222094Y-81646277D01*
X61166160Y-81604406D01*
X61141743Y-81538941D01*
X61156595Y-81470668D01*
X61174190Y-81446121D01*
X61268979Y-81343153D01*
X61395924Y-81148849D01*
X61489157Y-80936300D01*
X61546134Y-80711305D01*
X61548820Y-80678885D01*
X61573971Y-80613703D01*
X61630372Y-80572464D01*
X61700116Y-80568264D01*
X61760077Y-80601445D01*
X61913181Y-80754549D01*
X61946666Y-80815872D01*
X61949500Y-80842230D01*
X61949500Y-85197769D01*
X61929815Y-85264808D01*
X61913181Y-85285450D01*
X60512362Y-86686268D01*
X60451039Y-86719753D01*
X60404272Y-86720896D01*
X60276049Y-86699500D01*
X60043951Y-86699500D01*
X59998164Y-86707140D01*
X59815015Y-86737702D01*
X59595504Y-86813061D01*
X59595495Y-86813064D01*
X59391371Y-86923531D01*
X59391365Y-86923535D01*
X59208222Y-87066081D01*
X59208219Y-87066084D01*
X59051016Y-87236852D01*
X58924075Y-87431151D01*
X58830842Y-87643699D01*
X58773866Y-87868691D01*
X58773864Y-87868702D01*
X58754700Y-88099993D01*
X58754700Y-88100006D01*
X58773864Y-88331297D01*
X58773866Y-88331308D01*
X58830842Y-88556300D01*
X58924075Y-88768848D01*
X59051016Y-88963147D01*
X59051019Y-88963151D01*
X59051021Y-88963153D01*
X59145803Y-89066114D01*
X59176724Y-89128767D01*
X59168864Y-89198193D01*
X59124716Y-89252348D01*
X59097906Y-89266277D01*
X59017669Y-89296203D01*
X59017664Y-89296206D01*
X58902455Y-89382452D01*
X58902452Y-89382455D01*
X58816206Y-89497664D01*
X58816202Y-89497671D01*
X58765908Y-89632517D01*
X58765109Y-89639954D01*
X58759501Y-89692123D01*
X58759500Y-89692135D01*
X58759500Y-91587870D01*
X58759501Y-91587876D01*
X58765908Y-91647483D01*
X58816202Y-91782328D01*
X58816206Y-91782335D01*
X58902452Y-91897544D01*
X58902455Y-91897547D01*
X59017664Y-91983793D01*
X59017671Y-91983797D01*
X59152517Y-92034091D01*
X59152516Y-92034091D01*
X59159444Y-92034835D01*
X59212127Y-92040500D01*
X61107872Y-92040499D01*
X61167483Y-92034091D01*
X61302331Y-91983796D01*
X61417546Y-91897546D01*
X61503796Y-91782331D01*
X61554091Y-91647483D01*
X61560500Y-91587873D01*
X61560499Y-89692128D01*
X61554091Y-89632517D01*
X61527407Y-89560974D01*
X61503797Y-89497671D01*
X61503793Y-89497664D01*
X61417547Y-89382455D01*
X61417544Y-89382452D01*
X61302335Y-89296206D01*
X61302328Y-89296202D01*
X61222094Y-89266277D01*
X61166160Y-89224406D01*
X61141743Y-89158941D01*
X61156595Y-89090668D01*
X61174190Y-89066121D01*
X61268979Y-88963153D01*
X61395924Y-88768849D01*
X61489157Y-88556300D01*
X61546134Y-88331305D01*
X61546435Y-88327671D01*
X61565300Y-88100006D01*
X61565300Y-88099993D01*
X61546135Y-87868708D01*
X61546134Y-87868695D01*
X61544546Y-87862424D01*
X61547166Y-87792607D01*
X61577066Y-87744300D01*
X63007819Y-86313548D01*
X63069142Y-86280063D01*
X63138834Y-86285047D01*
X63194767Y-86326919D01*
X63219184Y-86392383D01*
X63219500Y-86401229D01*
X63219500Y-91547769D01*
X63199815Y-91614808D01*
X63183181Y-91635450D01*
X60512362Y-94306268D01*
X60451039Y-94339753D01*
X60404272Y-94340896D01*
X60276049Y-94319500D01*
X60043951Y-94319500D01*
X59998164Y-94327140D01*
X59815015Y-94357702D01*
X59595504Y-94433061D01*
X59595495Y-94433064D01*
X59391371Y-94543531D01*
X59391365Y-94543535D01*
X59208222Y-94686081D01*
X59208219Y-94686084D01*
X59051016Y-94856852D01*
X58924075Y-95051151D01*
X58830842Y-95263699D01*
X58773866Y-95488691D01*
X58773864Y-95488702D01*
X58754700Y-95719993D01*
X58754700Y-95720006D01*
X58773864Y-95951297D01*
X58773866Y-95951308D01*
X58830842Y-96176300D01*
X58924075Y-96388848D01*
X59051016Y-96583147D01*
X59051019Y-96583151D01*
X59051021Y-96583153D01*
X59145803Y-96686114D01*
X59176724Y-96748767D01*
X59168864Y-96818193D01*
X59124716Y-96872348D01*
X59097906Y-96886277D01*
X59017669Y-96916203D01*
X59017664Y-96916206D01*
X58902455Y-97002452D01*
X58902452Y-97002455D01*
X58816206Y-97117664D01*
X58816202Y-97117671D01*
X58765908Y-97252517D01*
X58765109Y-97259954D01*
X58759501Y-97312123D01*
X58759500Y-97312135D01*
X58759500Y-99207870D01*
X58759501Y-99207876D01*
X58765908Y-99267483D01*
X58816202Y-99402328D01*
X58816206Y-99402335D01*
X58902452Y-99517544D01*
X58902455Y-99517547D01*
X59017664Y-99603793D01*
X59017671Y-99603797D01*
X59152517Y-99654091D01*
X59152516Y-99654091D01*
X59159444Y-99654835D01*
X59212127Y-99660500D01*
X61107872Y-99660499D01*
X61167483Y-99654091D01*
X61302331Y-99603796D01*
X61417546Y-99517546D01*
X61503796Y-99402331D01*
X61554091Y-99267483D01*
X61560500Y-99207873D01*
X61560499Y-97312128D01*
X61554091Y-97252517D01*
X61548606Y-97237812D01*
X61503797Y-97117671D01*
X61503793Y-97117664D01*
X61417547Y-97002455D01*
X61417544Y-97002452D01*
X61302335Y-96916206D01*
X61302328Y-96916202D01*
X61222094Y-96886277D01*
X61166160Y-96844406D01*
X61141743Y-96778941D01*
X61156595Y-96710668D01*
X61174190Y-96686121D01*
X61268979Y-96583153D01*
X61395924Y-96388849D01*
X61489157Y-96176300D01*
X61546134Y-95951305D01*
X61546135Y-95951297D01*
X61565300Y-95720006D01*
X61565300Y-95719993D01*
X61546135Y-95488708D01*
X61546134Y-95488695D01*
X61544546Y-95482424D01*
X61547166Y-95412607D01*
X61577066Y-95364300D01*
X64552952Y-92388415D01*
X64589214Y-92334143D01*
X64625726Y-92279501D01*
X64628845Y-92274831D01*
X64635084Y-92265495D01*
X64688436Y-92136692D01*
X64691659Y-92128912D01*
X64720500Y-91983917D01*
X64720500Y-91836082D01*
X64720500Y-86401229D01*
X64740185Y-86334190D01*
X64792989Y-86288435D01*
X64862147Y-86278491D01*
X64925703Y-86307516D01*
X64932181Y-86313548D01*
X66362930Y-87744297D01*
X66396415Y-87805620D01*
X66395456Y-87862412D01*
X66393866Y-87868691D01*
X66393865Y-87868695D01*
X66374700Y-88099993D01*
X66374700Y-88100006D01*
X66393864Y-88331297D01*
X66393866Y-88331308D01*
X66450842Y-88556300D01*
X66544075Y-88768848D01*
X66671016Y-88963147D01*
X66671019Y-88963151D01*
X66671021Y-88963153D01*
X66765803Y-89066114D01*
X66796724Y-89128767D01*
X66788864Y-89198193D01*
X66744716Y-89252348D01*
X66717906Y-89266277D01*
X66637669Y-89296203D01*
X66637664Y-89296206D01*
X66522455Y-89382452D01*
X66522452Y-89382455D01*
X66436206Y-89497664D01*
X66436202Y-89497671D01*
X66385908Y-89632517D01*
X66385109Y-89639954D01*
X66379501Y-89692123D01*
X66379500Y-89692135D01*
X66379500Y-91587870D01*
X66379501Y-91587876D01*
X66385908Y-91647483D01*
X66436202Y-91782328D01*
X66436206Y-91782335D01*
X66522452Y-91897544D01*
X66522455Y-91897547D01*
X66637664Y-91983793D01*
X66637671Y-91983797D01*
X66772517Y-92034091D01*
X66772516Y-92034091D01*
X66779444Y-92034835D01*
X66832127Y-92040500D01*
X68727872Y-92040499D01*
X68787483Y-92034091D01*
X68922331Y-91983796D01*
X69037546Y-91897546D01*
X69123796Y-91782331D01*
X69174091Y-91647483D01*
X69180500Y-91587873D01*
X69180499Y-89692128D01*
X69174091Y-89632517D01*
X69147407Y-89560974D01*
X69123797Y-89497671D01*
X69123793Y-89497664D01*
X69037547Y-89382455D01*
X69037544Y-89382452D01*
X68922335Y-89296206D01*
X68922328Y-89296202D01*
X68842094Y-89266277D01*
X68786160Y-89224406D01*
X68761743Y-89158941D01*
X68776595Y-89090668D01*
X68794190Y-89066121D01*
X68888979Y-88963153D01*
X69015924Y-88768849D01*
X69109157Y-88556300D01*
X69166134Y-88331305D01*
X69166435Y-88327671D01*
X69185300Y-88100006D01*
X69185300Y-88099993D01*
X69166135Y-87868702D01*
X69166133Y-87868691D01*
X69109157Y-87643699D01*
X69015924Y-87431151D01*
X68888983Y-87236852D01*
X68888980Y-87236849D01*
X68888979Y-87236847D01*
X68731784Y-87066087D01*
X68731779Y-87066083D01*
X68731777Y-87066081D01*
X68548634Y-86923535D01*
X68548628Y-86923531D01*
X68344504Y-86813064D01*
X68344495Y-86813061D01*
X68124984Y-86737702D01*
X67953282Y-86709050D01*
X67896049Y-86699500D01*
X67663951Y-86699500D01*
X67535725Y-86720896D01*
X67466360Y-86712514D01*
X67427635Y-86686268D01*
X66026819Y-85285451D01*
X65993334Y-85224128D01*
X65990500Y-85197770D01*
X65990500Y-74047700D01*
X66010185Y-73980661D01*
X66043375Y-73946126D01*
X66111401Y-73898495D01*
X66278495Y-73731401D01*
X66408425Y-73545842D01*
X66463002Y-73502217D01*
X66532500Y-73495023D01*
X66594855Y-73526546D01*
X66611575Y-73545842D01*
X66741501Y-73731396D01*
X66741506Y-73731402D01*
X66908595Y-73898492D01*
X66908598Y-73898494D01*
X66908599Y-73898495D01*
X66976623Y-73946125D01*
X67020248Y-74000701D01*
X67029500Y-74047700D01*
X67029500Y-78013918D01*
X67029500Y-78013920D01*
X67029499Y-78013920D01*
X67058340Y-78158907D01*
X67058343Y-78158917D01*
X67114912Y-78295488D01*
X67114918Y-78295499D01*
X67128137Y-78315281D01*
X67128139Y-78315286D01*
X67197046Y-78418414D01*
X67197052Y-78418421D01*
X69178675Y-80400042D01*
X69737048Y-80958415D01*
X69737049Y-80958416D01*
X69841584Y-81062951D01*
X69841585Y-81062952D01*
X69964498Y-81145080D01*
X69964511Y-81145087D01*
X70101082Y-81201656D01*
X70101087Y-81201658D01*
X70101091Y-81201658D01*
X70101092Y-81201659D01*
X70246079Y-81230500D01*
X70246082Y-81230500D01*
X74150315Y-81230500D01*
X74217354Y-81250185D01*
X74254123Y-81286678D01*
X74291015Y-81343145D01*
X74291016Y-81343146D01*
X74291021Y-81343153D01*
X74385803Y-81446114D01*
X74416724Y-81508767D01*
X74408864Y-81578193D01*
X74364716Y-81632348D01*
X74337906Y-81646277D01*
X74257669Y-81676203D01*
X74257664Y-81676206D01*
X74142455Y-81762452D01*
X74142452Y-81762455D01*
X74056206Y-81877664D01*
X74056202Y-81877671D01*
X74005908Y-82012517D01*
X74005109Y-82019954D01*
X73999501Y-82072123D01*
X73999500Y-82072135D01*
X73999500Y-83967870D01*
X73999501Y-83967876D01*
X74005908Y-84027483D01*
X74056202Y-84162328D01*
X74056206Y-84162335D01*
X74142452Y-84277544D01*
X74142455Y-84277547D01*
X74257664Y-84363793D01*
X74257671Y-84363797D01*
X74392517Y-84414091D01*
X74392516Y-84414091D01*
X74399444Y-84414835D01*
X74452127Y-84420500D01*
X76347872Y-84420499D01*
X76407483Y-84414091D01*
X76542331Y-84363796D01*
X76657546Y-84277546D01*
X76743796Y-84162331D01*
X76794091Y-84027483D01*
X76800500Y-83967873D01*
X76800499Y-82072128D01*
X76794091Y-82012517D01*
X76748183Y-81889432D01*
X76743797Y-81877671D01*
X76743793Y-81877664D01*
X76657547Y-81762455D01*
X76657544Y-81762452D01*
X76542335Y-81676206D01*
X76542328Y-81676202D01*
X76462094Y-81646277D01*
X76406160Y-81604406D01*
X76381743Y-81538941D01*
X76396595Y-81470668D01*
X76414190Y-81446121D01*
X76508979Y-81343153D01*
X76635924Y-81148849D01*
X76729157Y-80936300D01*
X76786134Y-80711305D01*
X76788820Y-80678889D01*
X76805300Y-80480006D01*
X76805300Y-80479993D01*
X76786135Y-80248702D01*
X76786133Y-80248691D01*
X76729157Y-80023699D01*
X76635924Y-79811151D01*
X76508983Y-79616852D01*
X76508980Y-79616849D01*
X76508979Y-79616847D01*
X76351784Y-79446087D01*
X76351779Y-79446083D01*
X76351777Y-79446081D01*
X76168634Y-79303535D01*
X76168628Y-79303531D01*
X75964504Y-79193064D01*
X75964495Y-79193061D01*
X75744984Y-79117702D01*
X75573282Y-79089050D01*
X75516049Y-79079500D01*
X75283951Y-79079500D01*
X75238164Y-79087140D01*
X75055015Y-79117702D01*
X74835504Y-79193061D01*
X74835495Y-79193064D01*
X74631371Y-79303531D01*
X74631365Y-79303535D01*
X74448222Y-79446081D01*
X74448219Y-79446084D01*
X74448216Y-79446086D01*
X74448216Y-79446087D01*
X74379377Y-79520867D01*
X74291015Y-79616854D01*
X74254123Y-79673322D01*
X74200977Y-79718678D01*
X74150315Y-79729500D01*
X70682229Y-79729500D01*
X70615190Y-79709815D01*
X70594548Y-79693181D01*
X68566819Y-77665451D01*
X68533334Y-77604128D01*
X68530500Y-77577770D01*
X68530500Y-74047700D01*
X68550185Y-73980661D01*
X68583375Y-73946126D01*
X68651401Y-73898495D01*
X68818495Y-73731401D01*
X68948425Y-73545842D01*
X69003002Y-73502217D01*
X69072500Y-73495023D01*
X69134855Y-73526546D01*
X69151575Y-73545842D01*
X69281501Y-73731396D01*
X69281506Y-73731402D01*
X69448595Y-73898492D01*
X69448598Y-73898494D01*
X69448599Y-73898495D01*
X69516623Y-73946125D01*
X69560248Y-74000701D01*
X69569500Y-74047700D01*
X69569500Y-76743918D01*
X69569500Y-76743920D01*
X69569499Y-76743920D01*
X69598340Y-76888907D01*
X69598343Y-76888917D01*
X69654913Y-77025490D01*
X69654915Y-77025493D01*
X69664274Y-77039501D01*
X69737049Y-77148418D01*
X69737052Y-77148421D01*
X71007049Y-78418416D01*
X71071468Y-78482835D01*
X71111585Y-78522952D01*
X71234498Y-78605080D01*
X71234511Y-78605087D01*
X71371082Y-78661656D01*
X71371087Y-78661658D01*
X71371091Y-78661658D01*
X71371092Y-78661659D01*
X71516079Y-78690500D01*
X71516082Y-78690500D01*
X76307770Y-78690500D01*
X76374809Y-78710185D01*
X76395451Y-78726819D01*
X77153181Y-79484548D01*
X77186666Y-79545871D01*
X77189500Y-79572229D01*
X77189500Y-85197769D01*
X77169815Y-85264808D01*
X77153181Y-85285450D01*
X75752362Y-86686268D01*
X75691039Y-86719753D01*
X75644272Y-86720896D01*
X75516049Y-86699500D01*
X75283951Y-86699500D01*
X75238164Y-86707140D01*
X75055015Y-86737702D01*
X74835504Y-86813061D01*
X74835495Y-86813064D01*
X74631371Y-86923531D01*
X74631365Y-86923535D01*
X74448222Y-87066081D01*
X74448219Y-87066084D01*
X74291016Y-87236852D01*
X74164075Y-87431151D01*
X74070842Y-87643699D01*
X74013866Y-87868691D01*
X74013864Y-87868702D01*
X73994700Y-88099993D01*
X73994700Y-88100006D01*
X74013864Y-88331297D01*
X74013866Y-88331308D01*
X74070842Y-88556300D01*
X74164075Y-88768848D01*
X74291016Y-88963147D01*
X74291019Y-88963151D01*
X74291021Y-88963153D01*
X74385803Y-89066114D01*
X74416724Y-89128767D01*
X74408864Y-89198193D01*
X74364716Y-89252348D01*
X74337906Y-89266277D01*
X74257669Y-89296203D01*
X74257664Y-89296206D01*
X74142455Y-89382452D01*
X74142452Y-89382455D01*
X74056206Y-89497664D01*
X74056202Y-89497671D01*
X74005908Y-89632517D01*
X74005109Y-89639954D01*
X73999501Y-89692123D01*
X73999500Y-89692135D01*
X73999500Y-91587870D01*
X73999501Y-91587876D01*
X74005908Y-91647483D01*
X74056202Y-91782328D01*
X74056206Y-91782335D01*
X74142452Y-91897544D01*
X74142455Y-91897547D01*
X74257664Y-91983793D01*
X74257671Y-91983797D01*
X74392517Y-92034091D01*
X74392516Y-92034091D01*
X74399444Y-92034835D01*
X74452127Y-92040500D01*
X76347872Y-92040499D01*
X76407483Y-92034091D01*
X76542331Y-91983796D01*
X76657546Y-91897546D01*
X76743796Y-91782331D01*
X76794091Y-91647483D01*
X76800500Y-91587873D01*
X76800499Y-89692128D01*
X76794091Y-89632517D01*
X76767407Y-89560974D01*
X76743797Y-89497671D01*
X76743793Y-89497664D01*
X76657547Y-89382455D01*
X76657544Y-89382452D01*
X76542335Y-89296206D01*
X76542328Y-89296202D01*
X76462094Y-89266277D01*
X76406160Y-89224406D01*
X76381743Y-89158941D01*
X76396595Y-89090668D01*
X76414190Y-89066121D01*
X76508979Y-88963153D01*
X76635924Y-88768849D01*
X76729157Y-88556300D01*
X76786134Y-88331305D01*
X76786435Y-88327671D01*
X76805300Y-88100006D01*
X76805300Y-88099993D01*
X76786135Y-87868708D01*
X76786134Y-87868695D01*
X76784546Y-87862424D01*
X76787166Y-87792607D01*
X76817066Y-87744300D01*
X78247819Y-86313548D01*
X78309142Y-86280063D01*
X78378834Y-86285047D01*
X78434767Y-86326919D01*
X78459184Y-86392383D01*
X78459500Y-86401229D01*
X78459500Y-91547769D01*
X78439815Y-91614808D01*
X78423181Y-91635450D01*
X75752362Y-94306268D01*
X75691039Y-94339753D01*
X75644272Y-94340896D01*
X75516049Y-94319500D01*
X75283951Y-94319500D01*
X75238164Y-94327140D01*
X75055015Y-94357702D01*
X74835504Y-94433061D01*
X74835495Y-94433064D01*
X74631371Y-94543531D01*
X74631365Y-94543535D01*
X74448222Y-94686081D01*
X74448219Y-94686084D01*
X74291016Y-94856852D01*
X74164075Y-95051151D01*
X74070842Y-95263699D01*
X74013866Y-95488691D01*
X74013864Y-95488702D01*
X73994700Y-95719993D01*
X73994700Y-95720006D01*
X74013864Y-95951297D01*
X74013866Y-95951308D01*
X74070842Y-96176300D01*
X74164075Y-96388848D01*
X74291016Y-96583147D01*
X74291019Y-96583151D01*
X74291021Y-96583153D01*
X74385803Y-96686114D01*
X74416724Y-96748767D01*
X74408864Y-96818193D01*
X74364716Y-96872348D01*
X74337906Y-96886277D01*
X74257669Y-96916203D01*
X74257664Y-96916206D01*
X74142455Y-97002452D01*
X74142452Y-97002455D01*
X74056206Y-97117664D01*
X74056202Y-97117671D01*
X74005908Y-97252517D01*
X74005109Y-97259954D01*
X73999501Y-97312123D01*
X73999500Y-97312135D01*
X73999500Y-99207870D01*
X73999501Y-99207876D01*
X74005908Y-99267483D01*
X74056202Y-99402328D01*
X74056206Y-99402335D01*
X74142452Y-99517544D01*
X74142455Y-99517547D01*
X74257664Y-99603793D01*
X74257671Y-99603797D01*
X74392517Y-99654091D01*
X74392516Y-99654091D01*
X74399444Y-99654835D01*
X74452127Y-99660500D01*
X76347872Y-99660499D01*
X76407483Y-99654091D01*
X76542331Y-99603796D01*
X76657546Y-99517546D01*
X76743796Y-99402331D01*
X76794091Y-99267483D01*
X76800500Y-99207873D01*
X76800499Y-97312128D01*
X76794091Y-97252517D01*
X76788606Y-97237812D01*
X76743797Y-97117671D01*
X76743793Y-97117664D01*
X76657547Y-97002455D01*
X76657544Y-97002452D01*
X76542335Y-96916206D01*
X76542328Y-96916202D01*
X76462094Y-96886277D01*
X76406160Y-96844406D01*
X76381743Y-96778941D01*
X76396595Y-96710668D01*
X76414190Y-96686121D01*
X76508979Y-96583153D01*
X76635924Y-96388849D01*
X76729157Y-96176300D01*
X76786134Y-95951305D01*
X76786135Y-95951297D01*
X76805300Y-95720006D01*
X76805300Y-95719993D01*
X76786135Y-95488708D01*
X76786134Y-95488695D01*
X76784546Y-95482424D01*
X76787166Y-95412607D01*
X76817066Y-95364300D01*
X79792952Y-92388415D01*
X79829214Y-92334143D01*
X79865726Y-92279501D01*
X79868845Y-92274831D01*
X79875084Y-92265495D01*
X79928436Y-92136692D01*
X79931659Y-92128912D01*
X79960500Y-91983917D01*
X79960500Y-91836082D01*
X79960500Y-83019998D01*
X82984532Y-83019998D01*
X82984532Y-83020001D01*
X83004364Y-83246686D01*
X83004366Y-83246697D01*
X83063258Y-83466488D01*
X83063261Y-83466497D01*
X83159431Y-83672732D01*
X83159432Y-83672734D01*
X83289954Y-83859141D01*
X83450858Y-84020045D01*
X83450861Y-84020047D01*
X83637266Y-84150568D01*
X83695275Y-84177618D01*
X83747714Y-84223791D01*
X83766866Y-84290984D01*
X83746650Y-84357865D01*
X83695275Y-84402382D01*
X83637267Y-84429431D01*
X83637265Y-84429432D01*
X83450858Y-84559954D01*
X83289954Y-84720858D01*
X83159432Y-84907265D01*
X83159431Y-84907267D01*
X83063261Y-85113502D01*
X83063258Y-85113511D01*
X83004366Y-85333302D01*
X83004364Y-85333313D01*
X82984532Y-85559998D01*
X82984532Y-85560001D01*
X83004364Y-85786686D01*
X83004366Y-85786697D01*
X83063258Y-86006488D01*
X83063261Y-86006497D01*
X83159431Y-86212732D01*
X83159432Y-86212734D01*
X83289954Y-86399141D01*
X83450858Y-86560045D01*
X83450861Y-86560047D01*
X83637266Y-86690568D01*
X83695275Y-86717618D01*
X83747714Y-86763791D01*
X83766866Y-86830984D01*
X83746650Y-86897865D01*
X83695275Y-86942382D01*
X83637267Y-86969431D01*
X83637265Y-86969432D01*
X83450858Y-87099954D01*
X83289954Y-87260858D01*
X83159432Y-87447265D01*
X83159431Y-87447267D01*
X83063261Y-87653502D01*
X83063258Y-87653511D01*
X83004366Y-87873302D01*
X83004364Y-87873313D01*
X82984532Y-88099998D01*
X82984532Y-88100001D01*
X83004364Y-88326686D01*
X83004366Y-88326697D01*
X83063258Y-88546488D01*
X83063261Y-88546497D01*
X83159431Y-88752732D01*
X83159432Y-88752734D01*
X83289954Y-88939141D01*
X83450858Y-89100045D01*
X83450861Y-89100047D01*
X83637266Y-89230568D01*
X83695275Y-89257618D01*
X83747714Y-89303791D01*
X83766866Y-89370984D01*
X83746650Y-89437865D01*
X83695275Y-89482382D01*
X83637267Y-89509431D01*
X83637265Y-89509432D01*
X83450858Y-89639954D01*
X83289954Y-89800858D01*
X83159432Y-89987265D01*
X83159431Y-89987267D01*
X83063261Y-90193502D01*
X83063258Y-90193511D01*
X83004366Y-90413302D01*
X83004364Y-90413313D01*
X82984532Y-90639998D01*
X82984532Y-90640001D01*
X83004364Y-90866686D01*
X83004366Y-90866697D01*
X83063258Y-91086488D01*
X83063261Y-91086497D01*
X83159431Y-91292732D01*
X83159432Y-91292734D01*
X83289954Y-91479141D01*
X83450858Y-91640045D01*
X83450861Y-91640047D01*
X83637266Y-91770568D01*
X83695275Y-91797618D01*
X83747714Y-91843791D01*
X83766866Y-91910984D01*
X83746650Y-91977865D01*
X83695275Y-92022382D01*
X83637267Y-92049431D01*
X83637265Y-92049432D01*
X83450858Y-92179954D01*
X83289954Y-92340858D01*
X83159432Y-92527265D01*
X83159431Y-92527267D01*
X83063261Y-92733502D01*
X83063258Y-92733511D01*
X83004366Y-92953302D01*
X83004364Y-92953313D01*
X82984532Y-93179998D01*
X82984532Y-93180001D01*
X83004364Y-93406686D01*
X83004366Y-93406697D01*
X83063258Y-93626488D01*
X83063261Y-93626497D01*
X83159431Y-93832732D01*
X83159432Y-93832734D01*
X83289954Y-94019141D01*
X83450858Y-94180045D01*
X83450861Y-94180047D01*
X83637266Y-94310568D01*
X83656421Y-94319500D01*
X83695275Y-94337618D01*
X83747714Y-94383791D01*
X83766866Y-94450984D01*
X83746650Y-94517865D01*
X83695275Y-94562382D01*
X83637267Y-94589431D01*
X83637265Y-94589432D01*
X83450858Y-94719954D01*
X83289954Y-94880858D01*
X83159432Y-95067265D01*
X83159431Y-95067267D01*
X83063261Y-95273502D01*
X83063258Y-95273511D01*
X83004366Y-95493302D01*
X83004364Y-95493313D01*
X82984532Y-95719998D01*
X82984532Y-95720001D01*
X83004364Y-95946686D01*
X83004366Y-95946697D01*
X83063258Y-96166488D01*
X83063261Y-96166497D01*
X83159431Y-96372732D01*
X83159432Y-96372734D01*
X83289954Y-96559141D01*
X83450858Y-96720045D01*
X83450861Y-96720047D01*
X83637266Y-96850568D01*
X83695275Y-96877618D01*
X83747714Y-96923791D01*
X83766866Y-96990984D01*
X83746650Y-97057865D01*
X83695275Y-97102382D01*
X83637267Y-97129431D01*
X83637265Y-97129432D01*
X83450858Y-97259954D01*
X83289954Y-97420858D01*
X83159432Y-97607265D01*
X83159431Y-97607267D01*
X83063261Y-97813502D01*
X83063258Y-97813511D01*
X83004366Y-98033302D01*
X83004364Y-98033313D01*
X82984532Y-98259998D01*
X82984532Y-98260001D01*
X83004364Y-98486686D01*
X83004366Y-98486697D01*
X83063258Y-98706488D01*
X83063261Y-98706497D01*
X83159431Y-98912732D01*
X83159432Y-98912734D01*
X83289954Y-99099141D01*
X83450858Y-99260045D01*
X83476086Y-99277710D01*
X83519711Y-99332287D01*
X83526905Y-99401785D01*
X83495382Y-99464140D01*
X83435153Y-99499554D01*
X83418221Y-99502574D01*
X83382626Y-99506401D01*
X83382620Y-99506403D01*
X83247913Y-99556645D01*
X83247906Y-99556649D01*
X83132812Y-99642809D01*
X83132809Y-99642812D01*
X83046649Y-99757906D01*
X83046645Y-99757913D01*
X82996403Y-99892620D01*
X82996401Y-99892627D01*
X82990000Y-99952155D01*
X82990000Y-100550000D01*
X83974314Y-100550000D01*
X83969920Y-100554394D01*
X83917259Y-100645606D01*
X83890000Y-100747339D01*
X83890000Y-100852661D01*
X83917259Y-100954394D01*
X83969920Y-101045606D01*
X83974314Y-101050000D01*
X82990000Y-101050000D01*
X82990000Y-101647844D01*
X82996401Y-101707372D01*
X82996403Y-101707379D01*
X83046645Y-101842086D01*
X83046649Y-101842093D01*
X83132809Y-101957187D01*
X83132812Y-101957190D01*
X83247906Y-102043350D01*
X83247913Y-102043354D01*
X83382620Y-102093596D01*
X83382627Y-102093598D01*
X83442155Y-102099999D01*
X83442172Y-102100000D01*
X84040000Y-102100000D01*
X84040000Y-101115686D01*
X84044394Y-101120080D01*
X84135606Y-101172741D01*
X84237339Y-101200000D01*
X84342661Y-101200000D01*
X84444394Y-101172741D01*
X84535606Y-101120080D01*
X84540000Y-101115686D01*
X84540000Y-102100000D01*
X85137828Y-102100000D01*
X85137844Y-102099999D01*
X85197372Y-102093598D01*
X85197379Y-102093596D01*
X85332086Y-102043354D01*
X85332093Y-102043350D01*
X85447187Y-101957190D01*
X85447190Y-101957187D01*
X85533350Y-101842093D01*
X85533354Y-101842086D01*
X85541592Y-101819999D01*
X88091127Y-101819999D01*
X88091128Y-101820000D01*
X89054314Y-101820000D01*
X89049920Y-101824394D01*
X88997259Y-101915606D01*
X88970000Y-102017339D01*
X88970000Y-102122661D01*
X88997259Y-102224394D01*
X89049920Y-102315606D01*
X89054314Y-102320000D01*
X88091128Y-102320000D01*
X88143730Y-102516317D01*
X88143734Y-102516326D01*
X88239865Y-102722482D01*
X88370342Y-102908820D01*
X88531179Y-103069657D01*
X88717517Y-103200134D01*
X88923673Y-103296265D01*
X88923682Y-103296269D01*
X89119999Y-103348872D01*
X89120000Y-103348871D01*
X89120000Y-102385686D01*
X89124394Y-102390080D01*
X89215606Y-102442741D01*
X89317339Y-102470000D01*
X89422661Y-102470000D01*
X89524394Y-102442741D01*
X89615606Y-102390080D01*
X89620000Y-102385686D01*
X89620000Y-103348872D01*
X89816317Y-103296269D01*
X89816326Y-103296265D01*
X90022482Y-103200134D01*
X90208820Y-103069657D01*
X90369657Y-102908820D01*
X90500134Y-102722482D01*
X90596265Y-102516326D01*
X90596269Y-102516317D01*
X90648872Y-102320000D01*
X89685686Y-102320000D01*
X89690080Y-102315606D01*
X89742741Y-102224394D01*
X89770000Y-102122661D01*
X89770000Y-102017339D01*
X89742741Y-101915606D01*
X89690080Y-101824394D01*
X89685686Y-101820000D01*
X90648872Y-101820000D01*
X90648872Y-101819999D01*
X90596269Y-101623682D01*
X90596265Y-101623673D01*
X90500134Y-101417517D01*
X90369657Y-101231179D01*
X90208820Y-101070342D01*
X90022482Y-100939865D01*
X89816328Y-100843734D01*
X89620000Y-100791127D01*
X89620000Y-101754314D01*
X89615606Y-101749920D01*
X89524394Y-101697259D01*
X89422661Y-101670000D01*
X89317339Y-101670000D01*
X89215606Y-101697259D01*
X89124394Y-101749920D01*
X89120000Y-101754314D01*
X89120000Y-100791127D01*
X88923671Y-100843734D01*
X88717517Y-100939865D01*
X88531179Y-101070342D01*
X88370342Y-101231179D01*
X88239865Y-101417517D01*
X88143734Y-101623673D01*
X88143730Y-101623682D01*
X88091127Y-101819999D01*
X85541592Y-101819999D01*
X85583596Y-101707379D01*
X85583598Y-101707372D01*
X85589999Y-101647844D01*
X85590000Y-101647827D01*
X85590000Y-101050000D01*
X84605686Y-101050000D01*
X84610080Y-101045606D01*
X84662741Y-100954394D01*
X84690000Y-100852661D01*
X84690000Y-100747339D01*
X84662741Y-100645606D01*
X84610080Y-100554394D01*
X84605686Y-100550000D01*
X85590000Y-100550000D01*
X85590000Y-99952172D01*
X85589999Y-99952155D01*
X85583598Y-99892627D01*
X85583596Y-99892620D01*
X85533354Y-99757913D01*
X85533350Y-99757906D01*
X85447190Y-99642812D01*
X85447187Y-99642809D01*
X85332093Y-99556649D01*
X85332086Y-99556645D01*
X85197379Y-99506403D01*
X85197373Y-99506401D01*
X85161778Y-99502574D01*
X85097228Y-99475835D01*
X85057381Y-99418441D01*
X85054888Y-99348616D01*
X85090542Y-99288528D01*
X85103913Y-99277710D01*
X85129139Y-99260047D01*
X85290047Y-99099139D01*
X85420568Y-98912734D01*
X85516739Y-98706496D01*
X85575635Y-98486692D01*
X85595468Y-98260000D01*
X85575635Y-98033308D01*
X85516739Y-97813504D01*
X85420568Y-97607266D01*
X85290047Y-97420861D01*
X85290045Y-97420858D01*
X85129141Y-97259954D01*
X84942734Y-97129432D01*
X84942728Y-97129429D01*
X84884725Y-97102382D01*
X84832285Y-97056210D01*
X84813133Y-96989017D01*
X84833348Y-96922135D01*
X84884725Y-96877618D01*
X84942734Y-96850568D01*
X85129139Y-96720047D01*
X85290047Y-96559139D01*
X85420568Y-96372734D01*
X85516739Y-96166496D01*
X85575635Y-95946692D01*
X85594635Y-95729524D01*
X85595468Y-95720001D01*
X85595468Y-95719998D01*
X85585947Y-95611172D01*
X85575635Y-95493308D01*
X85516739Y-95273504D01*
X85420568Y-95067266D01*
X85290047Y-94880861D01*
X85290045Y-94880858D01*
X85129141Y-94719954D01*
X84942734Y-94589432D01*
X84942728Y-94589429D01*
X84884725Y-94562382D01*
X84832285Y-94516210D01*
X84813133Y-94449017D01*
X84833348Y-94382135D01*
X84884725Y-94337618D01*
X84942734Y-94310568D01*
X85129139Y-94180047D01*
X85290047Y-94019139D01*
X85420568Y-93832734D01*
X85516739Y-93626496D01*
X85575635Y-93406692D01*
X85595468Y-93180000D01*
X85575635Y-92953308D01*
X85516739Y-92733504D01*
X85420568Y-92527266D01*
X85290047Y-92340861D01*
X85290045Y-92340858D01*
X85129141Y-92179954D01*
X84942734Y-92049432D01*
X84942728Y-92049429D01*
X84884725Y-92022382D01*
X84832285Y-91976210D01*
X84813133Y-91909017D01*
X84833348Y-91842135D01*
X84884725Y-91797618D01*
X84942734Y-91770568D01*
X85129139Y-91640047D01*
X85290047Y-91479139D01*
X85420568Y-91292734D01*
X85516739Y-91086496D01*
X85575635Y-90866692D01*
X85593360Y-90664091D01*
X85595468Y-90640001D01*
X85595468Y-90639998D01*
X85589801Y-90575230D01*
X85575635Y-90413308D01*
X85516739Y-90193504D01*
X85420568Y-89987266D01*
X85290047Y-89800861D01*
X85290045Y-89800858D01*
X85129141Y-89639954D01*
X84942734Y-89509432D01*
X84942728Y-89509429D01*
X84884725Y-89482382D01*
X84832285Y-89436210D01*
X84813133Y-89369017D01*
X84833348Y-89302135D01*
X84884725Y-89257618D01*
X84942734Y-89230568D01*
X85129139Y-89100047D01*
X85290047Y-88939139D01*
X85420568Y-88752734D01*
X85516739Y-88546496D01*
X85575635Y-88326692D01*
X85593176Y-88126202D01*
X85595468Y-88100001D01*
X85595468Y-88099998D01*
X85575635Y-87873313D01*
X85575635Y-87873308D01*
X85516739Y-87653504D01*
X85420568Y-87447266D01*
X85290047Y-87260861D01*
X85290045Y-87260858D01*
X85129141Y-87099954D01*
X84942734Y-86969432D01*
X84942728Y-86969429D01*
X84884725Y-86942382D01*
X84832285Y-86896210D01*
X84813133Y-86829017D01*
X84833348Y-86762135D01*
X84884725Y-86717618D01*
X84942734Y-86690568D01*
X85129139Y-86560047D01*
X85290047Y-86399139D01*
X85420568Y-86212734D01*
X85516739Y-86006496D01*
X85575635Y-85786692D01*
X85595468Y-85560000D01*
X85575635Y-85333308D01*
X85516739Y-85113504D01*
X85420568Y-84907266D01*
X85290047Y-84720861D01*
X85290045Y-84720858D01*
X85129141Y-84559954D01*
X84942734Y-84429432D01*
X84942728Y-84429429D01*
X84884725Y-84402382D01*
X84832285Y-84356210D01*
X84813133Y-84289017D01*
X84833348Y-84222135D01*
X84884725Y-84177618D01*
X84942734Y-84150568D01*
X85129139Y-84020047D01*
X85290047Y-83859139D01*
X85420568Y-83672734D01*
X85516739Y-83466496D01*
X85575635Y-83246692D01*
X85595468Y-83020000D01*
X85575635Y-82793308D01*
X85516739Y-82573504D01*
X85420568Y-82367266D01*
X85290047Y-82180861D01*
X85290045Y-82180858D01*
X85129141Y-82019954D01*
X84942734Y-81889432D01*
X84942732Y-81889431D01*
X84736497Y-81793261D01*
X84736488Y-81793258D01*
X84516697Y-81734366D01*
X84516693Y-81734365D01*
X84516692Y-81734365D01*
X84516691Y-81734364D01*
X84516686Y-81734364D01*
X84290002Y-81714532D01*
X84289998Y-81714532D01*
X84063313Y-81734364D01*
X84063302Y-81734366D01*
X83843511Y-81793258D01*
X83843502Y-81793261D01*
X83637267Y-81889431D01*
X83637265Y-81889432D01*
X83450858Y-82019954D01*
X83289954Y-82180858D01*
X83159432Y-82367265D01*
X83159431Y-82367267D01*
X83063261Y-82573502D01*
X83063258Y-82573511D01*
X83004366Y-82793302D01*
X83004364Y-82793313D01*
X82984532Y-83019998D01*
X79960500Y-83019998D01*
X79960500Y-78991868D01*
X79950192Y-78940047D01*
X79931659Y-78846874D01*
X79877408Y-78715903D01*
X79875764Y-78711308D01*
X79792954Y-78587374D01*
X79792953Y-78587373D01*
X79792951Y-78587370D01*
X79688416Y-78482835D01*
X76186819Y-74981237D01*
X76153334Y-74919914D01*
X76150500Y-74893556D01*
X76150500Y-74047700D01*
X76170185Y-73980661D01*
X76203375Y-73946126D01*
X76271401Y-73898495D01*
X76438495Y-73731401D01*
X76568425Y-73545842D01*
X76623002Y-73502217D01*
X76692500Y-73495023D01*
X76754855Y-73526546D01*
X76771575Y-73545842D01*
X76901500Y-73731395D01*
X76901505Y-73731401D01*
X77068599Y-73898495D01*
X77165384Y-73966265D01*
X77262165Y-74034032D01*
X77262167Y-74034033D01*
X77262170Y-74034035D01*
X77476337Y-74133903D01*
X77704592Y-74195063D01*
X77881034Y-74210500D01*
X77939999Y-74215659D01*
X77940000Y-74215659D01*
X77940001Y-74215659D01*
X77998966Y-74210500D01*
X78175408Y-74195063D01*
X78403663Y-74133903D01*
X78617830Y-74034035D01*
X78811401Y-73898495D01*
X78978495Y-73731401D01*
X79108425Y-73545842D01*
X79163002Y-73502217D01*
X79232500Y-73495023D01*
X79294855Y-73526546D01*
X79311575Y-73545842D01*
X79441501Y-73731396D01*
X79441506Y-73731402D01*
X79608595Y-73898492D01*
X79608598Y-73898494D01*
X79608599Y-73898495D01*
X79676623Y-73946125D01*
X79720248Y-74000701D01*
X79729500Y-74047700D01*
X79729500Y-75618132D01*
X79758340Y-75763120D01*
X79758342Y-75763126D01*
X79814914Y-75899705D01*
X79814918Y-75899712D01*
X79847410Y-75948341D01*
X79897049Y-76022632D01*
X79897052Y-76022635D01*
X87033181Y-83158762D01*
X87066666Y-83220085D01*
X87069500Y-83246443D01*
X87069500Y-90433918D01*
X87069500Y-90433920D01*
X87069499Y-90433920D01*
X87098340Y-90578907D01*
X87098343Y-90578917D01*
X87154913Y-90715489D01*
X87154914Y-90715491D01*
X87154916Y-90715495D01*
X87167023Y-90733615D01*
X87167024Y-90733618D01*
X87237046Y-90838414D01*
X87237052Y-90838421D01*
X88043282Y-91644650D01*
X88076767Y-91705973D01*
X88079129Y-91743137D01*
X88064532Y-91909996D01*
X88064532Y-91910001D01*
X88084169Y-92134462D01*
X88084365Y-92136692D01*
X88094723Y-92175348D01*
X88143258Y-92356488D01*
X88143261Y-92356497D01*
X88239431Y-92562732D01*
X88239432Y-92562734D01*
X88369954Y-92749141D01*
X88530858Y-92910045D01*
X88530861Y-92910047D01*
X88717266Y-93040568D01*
X88923504Y-93136739D01*
X89143308Y-93195635D01*
X89305230Y-93209801D01*
X89369998Y-93215468D01*
X89370000Y-93215468D01*
X89370001Y-93215468D01*
X89390062Y-93213712D01*
X89536861Y-93200869D01*
X89605359Y-93214635D01*
X89635348Y-93236716D01*
X91123181Y-94724548D01*
X91156666Y-94785871D01*
X91159500Y-94812229D01*
X91159500Y-99733918D01*
X91159500Y-99733920D01*
X91159499Y-99733920D01*
X91188340Y-99878907D01*
X91188343Y-99878917D01*
X91244913Y-100015490D01*
X91244918Y-100015499D01*
X91254895Y-100030430D01*
X91254897Y-100030432D01*
X91327051Y-100138420D01*
X91327052Y-100138421D01*
X92240618Y-101051986D01*
X92274103Y-101113309D01*
X92273143Y-101170107D01*
X92254891Y-101242182D01*
X92234357Y-101489994D01*
X92234357Y-101490005D01*
X92254890Y-101737812D01*
X92254892Y-101737824D01*
X92315936Y-101978881D01*
X92415826Y-102206606D01*
X92551833Y-102414782D01*
X92551835Y-102414784D01*
X92551836Y-102414785D01*
X92720256Y-102597738D01*
X92916491Y-102750474D01*
X93135190Y-102868828D01*
X93370386Y-102949571D01*
X93615665Y-102990500D01*
X93864335Y-102990500D01*
X94109614Y-102949571D01*
X94344810Y-102868828D01*
X94563509Y-102750474D01*
X94759744Y-102597738D01*
X94928164Y-102414785D01*
X95005327Y-102296677D01*
X95058474Y-102251322D01*
X95109136Y-102240500D01*
X98870864Y-102240500D01*
X98937903Y-102260185D01*
X98974672Y-102296677D01*
X99051836Y-102414785D01*
X99220256Y-102597738D01*
X99416491Y-102750474D01*
X99635190Y-102868828D01*
X99870386Y-102949571D01*
X100115665Y-102990500D01*
X100364335Y-102990500D01*
X100609614Y-102949571D01*
X100844810Y-102868828D01*
X101063509Y-102750474D01*
X101259744Y-102597738D01*
X101428164Y-102414785D01*
X101564173Y-102206607D01*
X101664063Y-101978881D01*
X101725108Y-101737821D01*
X101725109Y-101737812D01*
X101745643Y-101490005D01*
X101745643Y-101489994D01*
X101725109Y-101242187D01*
X101725107Y-101242175D01*
X101664063Y-101001118D01*
X101564173Y-100773393D01*
X101428166Y-100565217D01*
X101349644Y-100479920D01*
X101259744Y-100382262D01*
X101063509Y-100229526D01*
X101063507Y-100229525D01*
X101063506Y-100229524D01*
X100844811Y-100111172D01*
X100844802Y-100111169D01*
X100609616Y-100030429D01*
X100364335Y-99989500D01*
X100115665Y-99989500D01*
X99870383Y-100030429D01*
X99635197Y-100111169D01*
X99635188Y-100111172D01*
X99416493Y-100229524D01*
X99220257Y-100382261D01*
X99051836Y-100565215D01*
X98974673Y-100683322D01*
X98921526Y-100728678D01*
X98870864Y-100739500D01*
X95109136Y-100739500D01*
X95042097Y-100719815D01*
X95005327Y-100683322D01*
X94980686Y-100645606D01*
X94928164Y-100565215D01*
X94759744Y-100382262D01*
X94563509Y-100229526D01*
X94563507Y-100229525D01*
X94563506Y-100229524D01*
X94344811Y-100111172D01*
X94344802Y-100111169D01*
X94109616Y-100030429D01*
X93864335Y-99989500D01*
X93615665Y-99989500D01*
X93408841Y-100024011D01*
X93339476Y-100015629D01*
X93300751Y-99989383D01*
X92696819Y-99385451D01*
X92663334Y-99324128D01*
X92660500Y-99297770D01*
X92660500Y-98304873D01*
X92680185Y-98237834D01*
X92732989Y-98192079D01*
X92802147Y-98182135D01*
X92860659Y-98207018D01*
X92916491Y-98250474D01*
X93135190Y-98368828D01*
X93370386Y-98449571D01*
X93615665Y-98490500D01*
X93864335Y-98490500D01*
X94109614Y-98449571D01*
X94344810Y-98368828D01*
X94563509Y-98250474D01*
X94759744Y-98097738D01*
X94928164Y-97914785D01*
X95064173Y-97706607D01*
X95164063Y-97478881D01*
X95225108Y-97237821D01*
X95225109Y-97237812D01*
X95245643Y-96990005D01*
X95245643Y-96989994D01*
X98734357Y-96989994D01*
X98734357Y-96990005D01*
X98754890Y-97237812D01*
X98754892Y-97237824D01*
X98815936Y-97478881D01*
X98915826Y-97706606D01*
X99051833Y-97914782D01*
X99051836Y-97914785D01*
X99220256Y-98097738D01*
X99416491Y-98250474D01*
X99635190Y-98368828D01*
X99870386Y-98449571D01*
X100115665Y-98490500D01*
X100364335Y-98490500D01*
X100609614Y-98449571D01*
X100844810Y-98368828D01*
X101063509Y-98250474D01*
X101259744Y-98097738D01*
X101428164Y-97914785D01*
X101564173Y-97706607D01*
X101664063Y-97478881D01*
X101725108Y-97237821D01*
X101725109Y-97237812D01*
X101745643Y-96990005D01*
X101745643Y-96989994D01*
X101725109Y-96742187D01*
X101725107Y-96742175D01*
X101664063Y-96501118D01*
X101564173Y-96273393D01*
X101428166Y-96065217D01*
X101323305Y-95951308D01*
X101259744Y-95882262D01*
X101063509Y-95729526D01*
X101063507Y-95729525D01*
X101063506Y-95729524D01*
X100844811Y-95611172D01*
X100844802Y-95611169D01*
X100609616Y-95530429D01*
X100364335Y-95489500D01*
X100115665Y-95489500D01*
X99870383Y-95530429D01*
X99635197Y-95611169D01*
X99635188Y-95611172D01*
X99416493Y-95729524D01*
X99220257Y-95882261D01*
X99051833Y-96065217D01*
X98915826Y-96273393D01*
X98815936Y-96501118D01*
X98754892Y-96742175D01*
X98754890Y-96742187D01*
X98734357Y-96989994D01*
X95245643Y-96989994D01*
X95225109Y-96742187D01*
X95225107Y-96742175D01*
X95164063Y-96501118D01*
X95064173Y-96273393D01*
X94928166Y-96065217D01*
X94823305Y-95951308D01*
X94759744Y-95882262D01*
X94563509Y-95729526D01*
X94563507Y-95729525D01*
X94563506Y-95729524D01*
X94344811Y-95611172D01*
X94344802Y-95611169D01*
X94109616Y-95530429D01*
X93864335Y-95489500D01*
X93615665Y-95489500D01*
X93370383Y-95530429D01*
X93135197Y-95611169D01*
X93135188Y-95611172D01*
X92916493Y-95729524D01*
X92907419Y-95736587D01*
X92860660Y-95772980D01*
X92795668Y-95798622D01*
X92727128Y-95785055D01*
X92676803Y-95736587D01*
X92660500Y-95675126D01*
X92660500Y-94376079D01*
X92631659Y-94231092D01*
X92631658Y-94231091D01*
X92631658Y-94231087D01*
X92610516Y-94180045D01*
X92575087Y-94094511D01*
X92575080Y-94094498D01*
X92492952Y-93971585D01*
X92492951Y-93971584D01*
X92388416Y-93867049D01*
X90696716Y-92175348D01*
X90663231Y-92114025D01*
X90660869Y-92076863D01*
X90675468Y-91910000D01*
X90674378Y-91897546D01*
X90663269Y-91770567D01*
X90655635Y-91683308D01*
X90596739Y-91463504D01*
X90500568Y-91257266D01*
X90370047Y-91070861D01*
X90370045Y-91070858D01*
X90209141Y-90909954D01*
X90022734Y-90779432D01*
X90022732Y-90779431D01*
X89816497Y-90683261D01*
X89816488Y-90683258D01*
X89596697Y-90624366D01*
X89596693Y-90624365D01*
X89596692Y-90624365D01*
X89596691Y-90624364D01*
X89596686Y-90624364D01*
X89370002Y-90604532D01*
X89369997Y-90604532D01*
X89203137Y-90619129D01*
X89134637Y-90605362D01*
X89104650Y-90583282D01*
X88606819Y-90085451D01*
X88573334Y-90024128D01*
X88570500Y-89997770D01*
X88570500Y-89356219D01*
X88590185Y-89289180D01*
X88642989Y-89243425D01*
X88712147Y-89233481D01*
X88746905Y-89243837D01*
X88923673Y-89326266D01*
X88923682Y-89326269D01*
X89119999Y-89378872D01*
X89120000Y-89378871D01*
X89120000Y-88415686D01*
X89124394Y-88420080D01*
X89215606Y-88472741D01*
X89317339Y-88500000D01*
X89422661Y-88500000D01*
X89524394Y-88472741D01*
X89615606Y-88420080D01*
X89620000Y-88415686D01*
X89620000Y-89378872D01*
X89816317Y-89326269D01*
X89816326Y-89326265D01*
X90022482Y-89230134D01*
X90208820Y-89099657D01*
X90369657Y-88938820D01*
X90500134Y-88752482D01*
X90596265Y-88546326D01*
X90596269Y-88546317D01*
X90648872Y-88350000D01*
X89685686Y-88350000D01*
X89690080Y-88345606D01*
X89742741Y-88254394D01*
X89770000Y-88152661D01*
X89770000Y-88047339D01*
X89742741Y-87945606D01*
X89690080Y-87854394D01*
X89685686Y-87850000D01*
X90648872Y-87850000D01*
X90648872Y-87849999D01*
X90596269Y-87653682D01*
X90596265Y-87653673D01*
X90500134Y-87447517D01*
X90369657Y-87261179D01*
X90208820Y-87100342D01*
X90022482Y-86969865D01*
X89816328Y-86873734D01*
X89620000Y-86821127D01*
X89620000Y-87784314D01*
X89615606Y-87779920D01*
X89524394Y-87727259D01*
X89422661Y-87700000D01*
X89317339Y-87700000D01*
X89215606Y-87727259D01*
X89124394Y-87779920D01*
X89120000Y-87784314D01*
X89120000Y-86821127D01*
X88923669Y-86873735D01*
X88746904Y-86956162D01*
X88677827Y-86966654D01*
X88614043Y-86938134D01*
X88575804Y-86879657D01*
X88570500Y-86843780D01*
X88570500Y-82810293D01*
X88557064Y-82742750D01*
X88557064Y-82742749D01*
X88541659Y-82665302D01*
X88508518Y-82585294D01*
X88508518Y-82585293D01*
X88485085Y-82528720D01*
X88485083Y-82528717D01*
X88402954Y-82405802D01*
X88402953Y-82405801D01*
X88402951Y-82405798D01*
X88298416Y-82301263D01*
X84844027Y-78846874D01*
X81266819Y-75269665D01*
X81233334Y-75208342D01*
X81230500Y-75181984D01*
X81230500Y-74047700D01*
X81250185Y-73980661D01*
X81283375Y-73946126D01*
X81351401Y-73898495D01*
X81518495Y-73731401D01*
X81648425Y-73545842D01*
X81703002Y-73502217D01*
X81772500Y-73495023D01*
X81834855Y-73526546D01*
X81851575Y-73545842D01*
X81981501Y-73731396D01*
X81981506Y-73731402D01*
X82148595Y-73898492D01*
X82148598Y-73898494D01*
X82148599Y-73898495D01*
X82216623Y-73946125D01*
X82260248Y-74000701D01*
X82269500Y-74047700D01*
X82269500Y-75473918D01*
X82269500Y-75473920D01*
X82269499Y-75473920D01*
X82298340Y-75618907D01*
X82298343Y-75618917D01*
X82354913Y-75755490D01*
X82354917Y-75755497D01*
X82360011Y-75763120D01*
X82360013Y-75763126D01*
X82360014Y-75763126D01*
X82437046Y-75878414D01*
X82437052Y-75878421D01*
X91123181Y-84564548D01*
X91156666Y-84625871D01*
X91159500Y-84652229D01*
X91159500Y-90713918D01*
X91159500Y-90713920D01*
X91159499Y-90713920D01*
X91188340Y-90858907D01*
X91188343Y-90858917D01*
X91244913Y-90995490D01*
X91244915Y-90995493D01*
X91254274Y-91009501D01*
X91327049Y-91118418D01*
X91327052Y-91118421D01*
X93397048Y-93188415D01*
X93501583Y-93292950D01*
X93501586Y-93292952D01*
X93501587Y-93292953D01*
X93624502Y-93375082D01*
X93624505Y-93375084D01*
X93681078Y-93398517D01*
X93681079Y-93398517D01*
X93761087Y-93431658D01*
X93877240Y-93454762D01*
X93896467Y-93458586D01*
X93906080Y-93460499D01*
X93906081Y-93460499D01*
X96003921Y-93460499D01*
X96101463Y-93441095D01*
X96148914Y-93431657D01*
X96285496Y-93375083D01*
X96334730Y-93342185D01*
X96408417Y-93292951D01*
X96464652Y-93236715D01*
X96525972Y-93203231D01*
X96563135Y-93200869D01*
X96709298Y-93213656D01*
X96729999Y-93215468D01*
X96730000Y-93215468D01*
X96730002Y-93215468D01*
X96786673Y-93210509D01*
X96956692Y-93195635D01*
X97176496Y-93136739D01*
X97382734Y-93040568D01*
X97569139Y-92910047D01*
X97730047Y-92749139D01*
X97860568Y-92562734D01*
X97956739Y-92356496D01*
X98015635Y-92136692D01*
X98019382Y-92093849D01*
X98021288Y-92080494D01*
X98040500Y-91983918D01*
X98040500Y-91836082D01*
X98021289Y-91739510D01*
X98019382Y-91726149D01*
X98015635Y-91683308D01*
X97956739Y-91463504D01*
X97860568Y-91257266D01*
X97730047Y-91070861D01*
X97730045Y-91070858D01*
X97569143Y-90909956D01*
X97544536Y-90892726D01*
X97500912Y-90838149D01*
X97493719Y-90768650D01*
X97525241Y-90706296D01*
X97585471Y-90670882D01*
X97602404Y-90667861D01*
X97637483Y-90664091D01*
X97772331Y-90613796D01*
X97887546Y-90527546D01*
X97973796Y-90412331D01*
X98024091Y-90277483D01*
X98030500Y-90217873D01*
X98030499Y-88522128D01*
X98024091Y-88462517D01*
X97975153Y-88331308D01*
X97973797Y-88327671D01*
X97973793Y-88327664D01*
X97887547Y-88212455D01*
X97887544Y-88212452D01*
X97772335Y-88126206D01*
X97772328Y-88126202D01*
X97637482Y-88075908D01*
X97637483Y-88075908D01*
X97577883Y-88069501D01*
X97577881Y-88069500D01*
X97577873Y-88069500D01*
X97577864Y-88069500D01*
X95882129Y-88069500D01*
X95882123Y-88069501D01*
X95822516Y-88075908D01*
X95687671Y-88126202D01*
X95687664Y-88126206D01*
X95572455Y-88212452D01*
X95572452Y-88212455D01*
X95486206Y-88327664D01*
X95486202Y-88327671D01*
X95435908Y-88462517D01*
X95431879Y-88500000D01*
X95429501Y-88522123D01*
X95429500Y-88522135D01*
X95429500Y-89793244D01*
X95409815Y-89860283D01*
X95357011Y-89906038D01*
X95294694Y-89916772D01*
X95269025Y-89914526D01*
X94590000Y-90593551D01*
X94590000Y-90587339D01*
X94562741Y-90485606D01*
X94510080Y-90394394D01*
X94435606Y-90319920D01*
X94344394Y-90267259D01*
X94242661Y-90240000D01*
X94236448Y-90240000D01*
X94915472Y-89560974D01*
X94842478Y-89509863D01*
X94636331Y-89413735D01*
X94636317Y-89413730D01*
X94416610Y-89354860D01*
X94416599Y-89354858D01*
X94190002Y-89335034D01*
X94189998Y-89335034D01*
X93963400Y-89354858D01*
X93963389Y-89354860D01*
X93743682Y-89413730D01*
X93743673Y-89413734D01*
X93537516Y-89509866D01*
X93537512Y-89509868D01*
X93464526Y-89560973D01*
X93464526Y-89560974D01*
X94143553Y-90240000D01*
X94137339Y-90240000D01*
X94035606Y-90267259D01*
X93944394Y-90319920D01*
X93869920Y-90394394D01*
X93817259Y-90485606D01*
X93790000Y-90587339D01*
X93790000Y-90593552D01*
X93110974Y-89914526D01*
X93110973Y-89914526D01*
X93059868Y-89987512D01*
X93059866Y-89987516D01*
X92963734Y-90193673D01*
X92963731Y-90193680D01*
X92926614Y-90332203D01*
X92890249Y-90391863D01*
X92827402Y-90422392D01*
X92758026Y-90414097D01*
X92719158Y-90387790D01*
X92696819Y-90365451D01*
X92663334Y-90304128D01*
X92660500Y-90277770D01*
X92660500Y-84216081D01*
X92657242Y-84199703D01*
X92647468Y-84150568D01*
X92631659Y-84071088D01*
X92598518Y-83991080D01*
X92588907Y-83967876D01*
X92575085Y-83934506D01*
X92575083Y-83934503D01*
X92492954Y-83811588D01*
X92492953Y-83811587D01*
X92492951Y-83811584D01*
X92388416Y-83707049D01*
X89161361Y-80479993D01*
X95584700Y-80479993D01*
X95584700Y-80480006D01*
X95603864Y-80711297D01*
X95603866Y-80711308D01*
X95660842Y-80936300D01*
X95754075Y-81148848D01*
X95881016Y-81343147D01*
X95881019Y-81343151D01*
X95881021Y-81343153D01*
X95975803Y-81446114D01*
X96006724Y-81508767D01*
X95998864Y-81578193D01*
X95954716Y-81632348D01*
X95927906Y-81646277D01*
X95847669Y-81676203D01*
X95847664Y-81676206D01*
X95732455Y-81762452D01*
X95732452Y-81762455D01*
X95646206Y-81877664D01*
X95646202Y-81877671D01*
X95595908Y-82012517D01*
X95595109Y-82019954D01*
X95589501Y-82072123D01*
X95589500Y-82072135D01*
X95589500Y-83967870D01*
X95589501Y-83967876D01*
X95595908Y-84027483D01*
X95646202Y-84162328D01*
X95646206Y-84162335D01*
X95732452Y-84277544D01*
X95732455Y-84277547D01*
X95847664Y-84363793D01*
X95847671Y-84363797D01*
X95982517Y-84414091D01*
X95982516Y-84414091D01*
X95989444Y-84414835D01*
X96042127Y-84420500D01*
X97937872Y-84420499D01*
X97997483Y-84414091D01*
X98132331Y-84363796D01*
X98247546Y-84277546D01*
X98333796Y-84162331D01*
X98384091Y-84027483D01*
X98390500Y-83967873D01*
X98390499Y-82072128D01*
X98384091Y-82012517D01*
X98338183Y-81889432D01*
X98333797Y-81877671D01*
X98333793Y-81877664D01*
X98247547Y-81762455D01*
X98247544Y-81762452D01*
X98132335Y-81676206D01*
X98132328Y-81676202D01*
X98052094Y-81646277D01*
X97996160Y-81604406D01*
X97971743Y-81538941D01*
X97986595Y-81470668D01*
X98004190Y-81446121D01*
X98098979Y-81343153D01*
X98225924Y-81148849D01*
X98319157Y-80936300D01*
X98376134Y-80711305D01*
X98378820Y-80678889D01*
X98395300Y-80480006D01*
X98395300Y-80479993D01*
X98376135Y-80248702D01*
X98376133Y-80248691D01*
X98319157Y-80023699D01*
X98225924Y-79811151D01*
X98098983Y-79616852D01*
X98098980Y-79616849D01*
X98098979Y-79616847D01*
X97941784Y-79446087D01*
X97941779Y-79446083D01*
X97941777Y-79446081D01*
X97758634Y-79303535D01*
X97758628Y-79303531D01*
X97554504Y-79193064D01*
X97554495Y-79193061D01*
X97334984Y-79117702D01*
X97163282Y-79089050D01*
X97106049Y-79079500D01*
X96873951Y-79079500D01*
X96828164Y-79087140D01*
X96645015Y-79117702D01*
X96425504Y-79193061D01*
X96425495Y-79193064D01*
X96221371Y-79303531D01*
X96221365Y-79303535D01*
X96038222Y-79446081D01*
X96038219Y-79446084D01*
X95881016Y-79616852D01*
X95754075Y-79811151D01*
X95660842Y-80023699D01*
X95603866Y-80248691D01*
X95603864Y-80248702D01*
X95584700Y-80479993D01*
X89161361Y-80479993D01*
X86621366Y-77939998D01*
X88064532Y-77939998D01*
X88064532Y-77940001D01*
X88084364Y-78166686D01*
X88084366Y-78166697D01*
X88143258Y-78386488D01*
X88143261Y-78386497D01*
X88239431Y-78592732D01*
X88239432Y-78592734D01*
X88369954Y-78779141D01*
X88530858Y-78940045D01*
X88530861Y-78940047D01*
X88717266Y-79070568D01*
X88923504Y-79166739D01*
X89143308Y-79225635D01*
X89305230Y-79239801D01*
X89369998Y-79245468D01*
X89370000Y-79245468D01*
X89370002Y-79245468D01*
X89426673Y-79240509D01*
X89596692Y-79225635D01*
X89816496Y-79166739D01*
X90022734Y-79070568D01*
X90209139Y-78940047D01*
X90370047Y-78779139D01*
X90500568Y-78592734D01*
X90596739Y-78386496D01*
X90655635Y-78166692D01*
X90675468Y-77940000D01*
X90655635Y-77713308D01*
X90596739Y-77493504D01*
X90500568Y-77287266D01*
X90370047Y-77100861D01*
X90370045Y-77100858D01*
X90209141Y-76939954D01*
X90022734Y-76809432D01*
X90022732Y-76809431D01*
X89816497Y-76713261D01*
X89816488Y-76713258D01*
X89596697Y-76654366D01*
X89596693Y-76654365D01*
X89596692Y-76654365D01*
X89596691Y-76654364D01*
X89596686Y-76654364D01*
X89370002Y-76634532D01*
X89369998Y-76634532D01*
X89143313Y-76654364D01*
X89143302Y-76654366D01*
X88923511Y-76713258D01*
X88923502Y-76713261D01*
X88717267Y-76809431D01*
X88717265Y-76809432D01*
X88530858Y-76939954D01*
X88369954Y-77100858D01*
X88239432Y-77287265D01*
X88239431Y-77287267D01*
X88143261Y-77493502D01*
X88143258Y-77493511D01*
X88084366Y-77713302D01*
X88084364Y-77713313D01*
X88064532Y-77939998D01*
X86621366Y-77939998D01*
X83806819Y-75125451D01*
X83773334Y-75064128D01*
X83770500Y-75037770D01*
X83770500Y-74047700D01*
X83790185Y-73980661D01*
X83823375Y-73946126D01*
X83891401Y-73898495D01*
X84058495Y-73731401D01*
X84188730Y-73545405D01*
X84243307Y-73501781D01*
X84312805Y-73494587D01*
X84375160Y-73526110D01*
X84391879Y-73545405D01*
X84521890Y-73731078D01*
X84688917Y-73898105D01*
X84882421Y-74033600D01*
X85096507Y-74133429D01*
X85096516Y-74133433D01*
X85310000Y-74190634D01*
X85310000Y-73293012D01*
X85367007Y-73325925D01*
X85494174Y-73360000D01*
X85625826Y-73360000D01*
X85752993Y-73325925D01*
X85810000Y-73293012D01*
X85810000Y-74190633D01*
X86023483Y-74133433D01*
X86023492Y-74133429D01*
X86237578Y-74033600D01*
X86431082Y-73898105D01*
X86598105Y-73731082D01*
X86728119Y-73545405D01*
X86782696Y-73501781D01*
X86852195Y-73494588D01*
X86914549Y-73526110D01*
X86931269Y-73545405D01*
X87061505Y-73731401D01*
X87228599Y-73898495D01*
X87325384Y-73966265D01*
X87422165Y-74034032D01*
X87422167Y-74034033D01*
X87422170Y-74034035D01*
X87636337Y-74133903D01*
X87864592Y-74195063D01*
X88041034Y-74210500D01*
X88099999Y-74215659D01*
X88100000Y-74215659D01*
X88100001Y-74215659D01*
X88158966Y-74210500D01*
X88335408Y-74195063D01*
X88563663Y-74133903D01*
X88777830Y-74034035D01*
X88971401Y-73898495D01*
X89138495Y-73731401D01*
X89268425Y-73545842D01*
X89323002Y-73502217D01*
X89392500Y-73495023D01*
X89454855Y-73526546D01*
X89471575Y-73545842D01*
X89601500Y-73731395D01*
X89601505Y-73731401D01*
X89768599Y-73898495D01*
X89865384Y-73966265D01*
X89962165Y-74034032D01*
X89962167Y-74034033D01*
X89962170Y-74034035D01*
X90176337Y-74133903D01*
X90404592Y-74195063D01*
X90581034Y-74210500D01*
X90639999Y-74215659D01*
X90640000Y-74215659D01*
X90640001Y-74215659D01*
X90698966Y-74210500D01*
X90875408Y-74195063D01*
X91103663Y-74133903D01*
X91317830Y-74034035D01*
X91511401Y-73898495D01*
X91678495Y-73731401D01*
X91808425Y-73545842D01*
X91863002Y-73502217D01*
X91932500Y-73495023D01*
X91994855Y-73526546D01*
X92011575Y-73545842D01*
X92141500Y-73731395D01*
X92141505Y-73731401D01*
X92308599Y-73898495D01*
X92405384Y-73966265D01*
X92502165Y-74034032D01*
X92502167Y-74034033D01*
X92502170Y-74034035D01*
X92716337Y-74133903D01*
X92944592Y-74195063D01*
X93121034Y-74210500D01*
X93179999Y-74215659D01*
X93180000Y-74215659D01*
X93180001Y-74215659D01*
X93238966Y-74210500D01*
X93415408Y-74195063D01*
X93643663Y-74133903D01*
X93857830Y-74034035D01*
X94051401Y-73898495D01*
X94218495Y-73731401D01*
X94348425Y-73545842D01*
X94403002Y-73502217D01*
X94472500Y-73495023D01*
X94534855Y-73526546D01*
X94551575Y-73545842D01*
X94681500Y-73731395D01*
X94681505Y-73731401D01*
X94848599Y-73898495D01*
X94945384Y-73966265D01*
X95042165Y-74034032D01*
X95042167Y-74034033D01*
X95042170Y-74034035D01*
X95256337Y-74133903D01*
X95484592Y-74195063D01*
X95661034Y-74210500D01*
X95719999Y-74215659D01*
X95720000Y-74215659D01*
X95720001Y-74215659D01*
X95778966Y-74210500D01*
X95955408Y-74195063D01*
X96183663Y-74133903D01*
X96397830Y-74034035D01*
X96591401Y-73898495D01*
X96758495Y-73731401D01*
X96888730Y-73545405D01*
X96943307Y-73501781D01*
X97012805Y-73494587D01*
X97075160Y-73526110D01*
X97091879Y-73545405D01*
X97221890Y-73731078D01*
X97388917Y-73898105D01*
X97582421Y-74033600D01*
X97796507Y-74133429D01*
X97796516Y-74133433D01*
X98010000Y-74190634D01*
X98010000Y-73293012D01*
X98067007Y-73325925D01*
X98194174Y-73360000D01*
X98325826Y-73360000D01*
X98452993Y-73325925D01*
X98510000Y-73293012D01*
X98510000Y-74190633D01*
X98723483Y-74133433D01*
X98723492Y-74133429D01*
X98937578Y-74033600D01*
X99131082Y-73898105D01*
X99298105Y-73731082D01*
X99428119Y-73545405D01*
X99482696Y-73501781D01*
X99552195Y-73494588D01*
X99614549Y-73526110D01*
X99631269Y-73545405D01*
X99761505Y-73731401D01*
X99928599Y-73898495D01*
X100025384Y-73966265D01*
X100122165Y-74034032D01*
X100122167Y-74034033D01*
X100122170Y-74034035D01*
X100336337Y-74133903D01*
X100564592Y-74195063D01*
X100741034Y-74210500D01*
X100799999Y-74215659D01*
X100800000Y-74215659D01*
X100800001Y-74215659D01*
X100858966Y-74210500D01*
X101035408Y-74195063D01*
X101263663Y-74133903D01*
X101477830Y-74034035D01*
X101671401Y-73898495D01*
X101793329Y-73776566D01*
X101854648Y-73743084D01*
X101924340Y-73748068D01*
X101980274Y-73789939D01*
X101997189Y-73820917D01*
X102046202Y-73952328D01*
X102046206Y-73952335D01*
X102132452Y-74067544D01*
X102132455Y-74067547D01*
X102247664Y-74153793D01*
X102247671Y-74153797D01*
X102382517Y-74204091D01*
X102382516Y-74204091D01*
X102389444Y-74204835D01*
X102442127Y-74210500D01*
X104237872Y-74210499D01*
X104297483Y-74204091D01*
X104432331Y-74153796D01*
X104547546Y-74067546D01*
X104633796Y-73952331D01*
X104684091Y-73817483D01*
X104690500Y-73757873D01*
X104690499Y-71962128D01*
X104684091Y-71902517D01*
X104682810Y-71899083D01*
X104633797Y-71767671D01*
X104633793Y-71767664D01*
X104547547Y-71652455D01*
X104547544Y-71652452D01*
X104432335Y-71566206D01*
X104432328Y-71566202D01*
X104297482Y-71515908D01*
X104297483Y-71515908D01*
X104237883Y-71509501D01*
X104237881Y-71509500D01*
X104237873Y-71509500D01*
X104237864Y-71509500D01*
X102442129Y-71509500D01*
X102442123Y-71509501D01*
X102382516Y-71515908D01*
X102247671Y-71566202D01*
X102247664Y-71566206D01*
X102132455Y-71652452D01*
X102132452Y-71652455D01*
X102046206Y-71767664D01*
X102046203Y-71767669D01*
X101997189Y-71899083D01*
X101955317Y-71955016D01*
X101889853Y-71979433D01*
X101821580Y-71964581D01*
X101793326Y-71943430D01*
X101671402Y-71821506D01*
X101671395Y-71821501D01*
X101477834Y-71685967D01*
X101477830Y-71685965D01*
X101477828Y-71685964D01*
X101263663Y-71586097D01*
X101263659Y-71586096D01*
X101263655Y-71586094D01*
X101035413Y-71524938D01*
X101035403Y-71524936D01*
X100800001Y-71504341D01*
X100799999Y-71504341D01*
X100564596Y-71524936D01*
X100564586Y-71524938D01*
X100336344Y-71586094D01*
X100336335Y-71586098D01*
X100122171Y-71685964D01*
X100122169Y-71685965D01*
X99928597Y-71821505D01*
X99761508Y-71988594D01*
X99631269Y-72174595D01*
X99576692Y-72218219D01*
X99507193Y-72225412D01*
X99444839Y-72193890D01*
X99428119Y-72174594D01*
X99298113Y-71988926D01*
X99298108Y-71988920D01*
X99131082Y-71821894D01*
X98937578Y-71686399D01*
X98723492Y-71586570D01*
X98723486Y-71586567D01*
X98510000Y-71529364D01*
X98510000Y-72426988D01*
X98452993Y-72394075D01*
X98325826Y-72360000D01*
X98194174Y-72360000D01*
X98067007Y-72394075D01*
X98010000Y-72426988D01*
X98010000Y-71529364D01*
X98009999Y-71529364D01*
X97796513Y-71586567D01*
X97796507Y-71586570D01*
X97582422Y-71686399D01*
X97582420Y-71686400D01*
X97388926Y-71821886D01*
X97388920Y-71821891D01*
X97221891Y-71988920D01*
X97221890Y-71988922D01*
X97091880Y-72174595D01*
X97037303Y-72218219D01*
X96967804Y-72225412D01*
X96905450Y-72193890D01*
X96888730Y-72174594D01*
X96758494Y-71988597D01*
X96591402Y-71821506D01*
X96591395Y-71821501D01*
X96397834Y-71685967D01*
X96397830Y-71685965D01*
X96397828Y-71685964D01*
X96183663Y-71586097D01*
X96183659Y-71586096D01*
X96183655Y-71586094D01*
X95955413Y-71524938D01*
X95955403Y-71524936D01*
X95720001Y-71504341D01*
X95719999Y-71504341D01*
X95484596Y-71524936D01*
X95484586Y-71524938D01*
X95256344Y-71586094D01*
X95256335Y-71586098D01*
X95042171Y-71685964D01*
X95042169Y-71685965D01*
X94848597Y-71821505D01*
X94681505Y-71988597D01*
X94551575Y-72174158D01*
X94496998Y-72217783D01*
X94427500Y-72224977D01*
X94365145Y-72193454D01*
X94348425Y-72174158D01*
X94218494Y-71988597D01*
X94051402Y-71821506D01*
X94051395Y-71821501D01*
X93857834Y-71685967D01*
X93857830Y-71685965D01*
X93857828Y-71685964D01*
X93643663Y-71586097D01*
X93643659Y-71586096D01*
X93643655Y-71586094D01*
X93415413Y-71524938D01*
X93415403Y-71524936D01*
X93180001Y-71504341D01*
X93179999Y-71504341D01*
X92944596Y-71524936D01*
X92944586Y-71524938D01*
X92716344Y-71586094D01*
X92716335Y-71586098D01*
X92502171Y-71685964D01*
X92502169Y-71685965D01*
X92308597Y-71821505D01*
X92141505Y-71988597D01*
X92011575Y-72174158D01*
X91956998Y-72217783D01*
X91887500Y-72224977D01*
X91825145Y-72193454D01*
X91808425Y-72174158D01*
X91678494Y-71988597D01*
X91511402Y-71821506D01*
X91511395Y-71821501D01*
X91317834Y-71685967D01*
X91317830Y-71685965D01*
X91317828Y-71685964D01*
X91103663Y-71586097D01*
X91103659Y-71586096D01*
X91103655Y-71586094D01*
X90875413Y-71524938D01*
X90875403Y-71524936D01*
X90640001Y-71504341D01*
X90639999Y-71504341D01*
X90404596Y-71524936D01*
X90404586Y-71524938D01*
X90176344Y-71586094D01*
X90176335Y-71586098D01*
X89962171Y-71685964D01*
X89962169Y-71685965D01*
X89768597Y-71821505D01*
X89601505Y-71988597D01*
X89471575Y-72174158D01*
X89416998Y-72217783D01*
X89347500Y-72224977D01*
X89285145Y-72193454D01*
X89268425Y-72174158D01*
X89138494Y-71988597D01*
X88971402Y-71821506D01*
X88971395Y-71821501D01*
X88777834Y-71685967D01*
X88777830Y-71685965D01*
X88777828Y-71685964D01*
X88563663Y-71586097D01*
X88563659Y-71586096D01*
X88563655Y-71586094D01*
X88335413Y-71524938D01*
X88335403Y-71524936D01*
X88100001Y-71504341D01*
X88099999Y-71504341D01*
X87864596Y-71524936D01*
X87864586Y-71524938D01*
X87636344Y-71586094D01*
X87636335Y-71586098D01*
X87422171Y-71685964D01*
X87422169Y-71685965D01*
X87228597Y-71821505D01*
X87061508Y-71988594D01*
X86931269Y-72174595D01*
X86876692Y-72218219D01*
X86807193Y-72225412D01*
X86744839Y-72193890D01*
X86728119Y-72174594D01*
X86598113Y-71988926D01*
X86598108Y-71988920D01*
X86431082Y-71821894D01*
X86237578Y-71686399D01*
X86023492Y-71586570D01*
X86023486Y-71586567D01*
X85810000Y-71529364D01*
X85810000Y-72426988D01*
X85752993Y-72394075D01*
X85625826Y-72360000D01*
X85494174Y-72360000D01*
X85367007Y-72394075D01*
X85310000Y-72426988D01*
X85310000Y-71529364D01*
X85309999Y-71529364D01*
X85096513Y-71586567D01*
X85096507Y-71586570D01*
X84882422Y-71686399D01*
X84882420Y-71686400D01*
X84688926Y-71821886D01*
X84688920Y-71821891D01*
X84521891Y-71988920D01*
X84521890Y-71988922D01*
X84391880Y-72174595D01*
X84337303Y-72218219D01*
X84267804Y-72225412D01*
X84205450Y-72193890D01*
X84188730Y-72174594D01*
X84058494Y-71988597D01*
X83891402Y-71821506D01*
X83891395Y-71821501D01*
X83697834Y-71685967D01*
X83697830Y-71685965D01*
X83697828Y-71685964D01*
X83483663Y-71586097D01*
X83483659Y-71586096D01*
X83483655Y-71586094D01*
X83255413Y-71524938D01*
X83255403Y-71524936D01*
X83020001Y-71504341D01*
X83019999Y-71504341D01*
X82784596Y-71524936D01*
X82784586Y-71524938D01*
X82556344Y-71586094D01*
X82556335Y-71586098D01*
X82342171Y-71685964D01*
X82342169Y-71685965D01*
X82148597Y-71821505D01*
X81981505Y-71988597D01*
X81851575Y-72174158D01*
X81796998Y-72217783D01*
X81727500Y-72224977D01*
X81665145Y-72193454D01*
X81648425Y-72174158D01*
X81518494Y-71988597D01*
X81351402Y-71821506D01*
X81351395Y-71821501D01*
X81157834Y-71685967D01*
X81157830Y-71685965D01*
X81157828Y-71685964D01*
X80943663Y-71586097D01*
X80943659Y-71586096D01*
X80943655Y-71586094D01*
X80715413Y-71524938D01*
X80715403Y-71524936D01*
X80480001Y-71504341D01*
X80479999Y-71504341D01*
X80244596Y-71524936D01*
X80244586Y-71524938D01*
X80016344Y-71586094D01*
X80016335Y-71586098D01*
X79802171Y-71685964D01*
X79802169Y-71685965D01*
X79608597Y-71821505D01*
X79441505Y-71988597D01*
X79311575Y-72174158D01*
X79256998Y-72217783D01*
X79187500Y-72224977D01*
X79125145Y-72193454D01*
X79108425Y-72174158D01*
X78978494Y-71988597D01*
X78811402Y-71821506D01*
X78811395Y-71821501D01*
X78617834Y-71685967D01*
X78617830Y-71685965D01*
X78617828Y-71685964D01*
X78403663Y-71586097D01*
X78403659Y-71586096D01*
X78403655Y-71586094D01*
X78175413Y-71524938D01*
X78175403Y-71524936D01*
X77940001Y-71504341D01*
X77939999Y-71504341D01*
X77704596Y-71524936D01*
X77704586Y-71524938D01*
X77476344Y-71586094D01*
X77476335Y-71586098D01*
X77262171Y-71685964D01*
X77262169Y-71685965D01*
X77068597Y-71821505D01*
X76901505Y-71988597D01*
X76771575Y-72174158D01*
X76716998Y-72217783D01*
X76647500Y-72224977D01*
X76585145Y-72193454D01*
X76568425Y-72174158D01*
X76438494Y-71988597D01*
X76271402Y-71821506D01*
X76271395Y-71821501D01*
X76077834Y-71685967D01*
X76077830Y-71685965D01*
X76077828Y-71685964D01*
X75863663Y-71586097D01*
X75863659Y-71586096D01*
X75863655Y-71586094D01*
X75635413Y-71524938D01*
X75635403Y-71524936D01*
X75400001Y-71504341D01*
X75399999Y-71504341D01*
X75164596Y-71524936D01*
X75164586Y-71524938D01*
X74936344Y-71586094D01*
X74936335Y-71586098D01*
X74722171Y-71685964D01*
X74722169Y-71685965D01*
X74528597Y-71821505D01*
X74361508Y-71988594D01*
X74231269Y-72174595D01*
X74176692Y-72218219D01*
X74107193Y-72225412D01*
X74044839Y-72193890D01*
X74028119Y-72174594D01*
X73898113Y-71988926D01*
X73898108Y-71988920D01*
X73731082Y-71821894D01*
X73537578Y-71686399D01*
X73323492Y-71586570D01*
X73323486Y-71586567D01*
X73110000Y-71529364D01*
X73110000Y-72426988D01*
X73052993Y-72394075D01*
X72925826Y-72360000D01*
X72794174Y-72360000D01*
X72667007Y-72394075D01*
X72610000Y-72426988D01*
X72610000Y-71529364D01*
X72609999Y-71529364D01*
X72396513Y-71586567D01*
X72396507Y-71586570D01*
X72182422Y-71686399D01*
X72182420Y-71686400D01*
X71988926Y-71821886D01*
X71988920Y-71821891D01*
X71821891Y-71988920D01*
X71821890Y-71988922D01*
X71691880Y-72174595D01*
X71637303Y-72218219D01*
X71567804Y-72225412D01*
X71505450Y-72193890D01*
X71488730Y-72174594D01*
X71358494Y-71988597D01*
X71191402Y-71821506D01*
X71191395Y-71821501D01*
X70997834Y-71685967D01*
X70997830Y-71685965D01*
X70997828Y-71685964D01*
X70783663Y-71586097D01*
X70783659Y-71586096D01*
X70783655Y-71586094D01*
X70555413Y-71524938D01*
X70555403Y-71524936D01*
X70320001Y-71504341D01*
X70319999Y-71504341D01*
X70084596Y-71524936D01*
X70084586Y-71524938D01*
X69856344Y-71586094D01*
X69856335Y-71586098D01*
X69642171Y-71685964D01*
X69642169Y-71685965D01*
X69448597Y-71821505D01*
X69281505Y-71988597D01*
X69151575Y-72174158D01*
X69096998Y-72217783D01*
X69027500Y-72224977D01*
X68965145Y-72193454D01*
X68948425Y-72174158D01*
X68818494Y-71988597D01*
X68651402Y-71821506D01*
X68651395Y-71821501D01*
X68457834Y-71685967D01*
X68457830Y-71685965D01*
X68457828Y-71685964D01*
X68243663Y-71586097D01*
X68243659Y-71586096D01*
X68243655Y-71586094D01*
X68015413Y-71524938D01*
X68015403Y-71524936D01*
X67780001Y-71504341D01*
X67779999Y-71504341D01*
X67544596Y-71524936D01*
X67544586Y-71524938D01*
X67316344Y-71586094D01*
X67316335Y-71586098D01*
X67102171Y-71685964D01*
X67102169Y-71685965D01*
X66908597Y-71821505D01*
X66741505Y-71988597D01*
X66611575Y-72174158D01*
X66556998Y-72217783D01*
X66487500Y-72224977D01*
X66425145Y-72193454D01*
X66408425Y-72174158D01*
X66278494Y-71988597D01*
X66111402Y-71821506D01*
X66111395Y-71821501D01*
X65917834Y-71685967D01*
X65917830Y-71685965D01*
X65917828Y-71685964D01*
X65703663Y-71586097D01*
X65703659Y-71586096D01*
X65703655Y-71586094D01*
X65475413Y-71524938D01*
X65475403Y-71524936D01*
X65240001Y-71504341D01*
X65239999Y-71504341D01*
X65004596Y-71524936D01*
X65004586Y-71524938D01*
X64776344Y-71586094D01*
X64776335Y-71586098D01*
X64562171Y-71685964D01*
X64562169Y-71685965D01*
X64368597Y-71821505D01*
X64201505Y-71988597D01*
X64071575Y-72174158D01*
X64016998Y-72217783D01*
X63947500Y-72224977D01*
X63885145Y-72193454D01*
X63868425Y-72174158D01*
X63738494Y-71988597D01*
X63571402Y-71821506D01*
X63571395Y-71821501D01*
X63377834Y-71685967D01*
X63377830Y-71685965D01*
X63377828Y-71685964D01*
X63163663Y-71586097D01*
X63163659Y-71586096D01*
X63163655Y-71586094D01*
X62935413Y-71524938D01*
X62935403Y-71524936D01*
X62700001Y-71504341D01*
X62699999Y-71504341D01*
X62464596Y-71524936D01*
X62464586Y-71524938D01*
X62236344Y-71586094D01*
X62236335Y-71586098D01*
X62022171Y-71685964D01*
X62022169Y-71685965D01*
X61828597Y-71821505D01*
X61661508Y-71988594D01*
X61531269Y-72174595D01*
X61476692Y-72218219D01*
X61407193Y-72225412D01*
X61344839Y-72193890D01*
X61328119Y-72174594D01*
X61198113Y-71988926D01*
X61198108Y-71988920D01*
X61031082Y-71821894D01*
X60837578Y-71686399D01*
X60623492Y-71586570D01*
X60623486Y-71586567D01*
X60410000Y-71529364D01*
X60410000Y-72426988D01*
X60352993Y-72394075D01*
X60225826Y-72360000D01*
X60094174Y-72360000D01*
X59967007Y-72394075D01*
X59910000Y-72426988D01*
X59910000Y-71529364D01*
X59909999Y-71529364D01*
X59696513Y-71586567D01*
X59696507Y-71586570D01*
X59482422Y-71686399D01*
X59482420Y-71686400D01*
X59288926Y-71821886D01*
X59288920Y-71821891D01*
X59121891Y-71988920D01*
X59121890Y-71988922D01*
X58991880Y-72174595D01*
X58937303Y-72218219D01*
X58867804Y-72225412D01*
X58805450Y-72193890D01*
X58788730Y-72174594D01*
X58658494Y-71988597D01*
X58491402Y-71821506D01*
X58491395Y-71821501D01*
X58297834Y-71685967D01*
X58297830Y-71685965D01*
X58297828Y-71685964D01*
X58083663Y-71586097D01*
X58083659Y-71586096D01*
X58083655Y-71586094D01*
X57855413Y-71524938D01*
X57855403Y-71524936D01*
X57620001Y-71504341D01*
X57619999Y-71504341D01*
X57384596Y-71524936D01*
X57384586Y-71524938D01*
X57156344Y-71586094D01*
X57156335Y-71586098D01*
X56942171Y-71685964D01*
X56942169Y-71685965D01*
X56748597Y-71821505D01*
X56581505Y-71988597D01*
X56451575Y-72174158D01*
X56396998Y-72217783D01*
X56327500Y-72224977D01*
X56265145Y-72193454D01*
X56248425Y-72174158D01*
X56118494Y-71988597D01*
X55951402Y-71821506D01*
X55951395Y-71821501D01*
X55757834Y-71685967D01*
X55757830Y-71685965D01*
X55757828Y-71685964D01*
X55543663Y-71586097D01*
X55543659Y-71586096D01*
X55543655Y-71586094D01*
X55315413Y-71524938D01*
X55315403Y-71524936D01*
X55080001Y-71504341D01*
X55079999Y-71504341D01*
X54844596Y-71524936D01*
X54844586Y-71524938D01*
X54616344Y-71586094D01*
X54616335Y-71586098D01*
X54402171Y-71685964D01*
X54402169Y-71685965D01*
X54208597Y-71821505D01*
X54041505Y-71988597D01*
X53905965Y-72182169D01*
X53905964Y-72182171D01*
X53806098Y-72396335D01*
X53806094Y-72396344D01*
X53744938Y-72624586D01*
X53744936Y-72624596D01*
X53724341Y-72859999D01*
X50500500Y-72859999D01*
X50500500Y-69049998D01*
X76634532Y-69049998D01*
X76634532Y-69050001D01*
X76654364Y-69276686D01*
X76654366Y-69276697D01*
X76713258Y-69496488D01*
X76713261Y-69496497D01*
X76809431Y-69702732D01*
X76809432Y-69702734D01*
X76939954Y-69889141D01*
X77100858Y-70050045D01*
X77100861Y-70050047D01*
X77287266Y-70180568D01*
X77493504Y-70276739D01*
X77713308Y-70335635D01*
X77875230Y-70349801D01*
X77939998Y-70355468D01*
X77940000Y-70355468D01*
X77940002Y-70355468D01*
X77996673Y-70350509D01*
X78166692Y-70335635D01*
X78386496Y-70276739D01*
X78592734Y-70180568D01*
X78779139Y-70050047D01*
X78940047Y-69889139D01*
X79070568Y-69702734D01*
X79166739Y-69496496D01*
X79225635Y-69276692D01*
X79245468Y-69050000D01*
X79225635Y-68823308D01*
X79166739Y-68603504D01*
X79070568Y-68397266D01*
X78940047Y-68210861D01*
X78940045Y-68210858D01*
X78779141Y-68049954D01*
X78592734Y-67919432D01*
X78592732Y-67919431D01*
X78386497Y-67823261D01*
X78386488Y-67823258D01*
X78166697Y-67764366D01*
X78166693Y-67764365D01*
X78166692Y-67764365D01*
X78166691Y-67764364D01*
X78166686Y-67764364D01*
X77940002Y-67744532D01*
X77939998Y-67744532D01*
X77713313Y-67764364D01*
X77713302Y-67764366D01*
X77493511Y-67823258D01*
X77493502Y-67823261D01*
X77287267Y-67919431D01*
X77287265Y-67919432D01*
X77100858Y-68049954D01*
X76939954Y-68210858D01*
X76809432Y-68397265D01*
X76809431Y-68397267D01*
X76713261Y-68603502D01*
X76713258Y-68603511D01*
X76654366Y-68823302D01*
X76654364Y-68823313D01*
X76634532Y-69049998D01*
X50500500Y-69049998D01*
X50500500Y-67219994D01*
X67544357Y-67219994D01*
X67544357Y-67220005D01*
X67564890Y-67467812D01*
X67564892Y-67467824D01*
X67625936Y-67708881D01*
X67725826Y-67936606D01*
X67861833Y-68144782D01*
X67861836Y-68144785D01*
X68030256Y-68327738D01*
X68226491Y-68480474D01*
X68445190Y-68598828D01*
X68680386Y-68679571D01*
X68925665Y-68720500D01*
X69174335Y-68720500D01*
X69419614Y-68679571D01*
X69654810Y-68598828D01*
X69873509Y-68480474D01*
X70069744Y-68327738D01*
X70238164Y-68144785D01*
X70374173Y-67936607D01*
X70474063Y-67708881D01*
X70535108Y-67467821D01*
X70555643Y-67220000D01*
X70535108Y-66972179D01*
X70474063Y-66731119D01*
X70374173Y-66503393D01*
X70238166Y-66295217D01*
X70216557Y-66271744D01*
X70069744Y-66112262D01*
X69873509Y-65959526D01*
X69873507Y-65959525D01*
X69873506Y-65959524D01*
X69654811Y-65841172D01*
X69654802Y-65841169D01*
X69419616Y-65760429D01*
X69174335Y-65719500D01*
X68925665Y-65719500D01*
X68680383Y-65760429D01*
X68445197Y-65841169D01*
X68445188Y-65841172D01*
X68226493Y-65959524D01*
X68030257Y-66112261D01*
X67861833Y-66295217D01*
X67725826Y-66503393D01*
X67625936Y-66731118D01*
X67564892Y-66972175D01*
X67564890Y-66972187D01*
X67544357Y-67219994D01*
X50500500Y-67219994D01*
X50500500Y-59672135D01*
X67549500Y-59672135D01*
X67549500Y-61767870D01*
X67549501Y-61767876D01*
X67555908Y-61827483D01*
X67606202Y-61962328D01*
X67606206Y-61962335D01*
X67692452Y-62077544D01*
X67692455Y-62077547D01*
X67807664Y-62163793D01*
X67807671Y-62163797D01*
X67942517Y-62214091D01*
X67942516Y-62214091D01*
X67949444Y-62214835D01*
X68002127Y-62220500D01*
X70097872Y-62220499D01*
X70157483Y-62214091D01*
X70292331Y-62163796D01*
X70407546Y-62077546D01*
X70493796Y-61962331D01*
X70544091Y-61827483D01*
X70550500Y-61767873D01*
X70550499Y-59672128D01*
X70544091Y-59612517D01*
X70493796Y-59477669D01*
X70493795Y-59477668D01*
X70493793Y-59477664D01*
X70407547Y-59362455D01*
X70407544Y-59362452D01*
X70292335Y-59276206D01*
X70292328Y-59276202D01*
X70157482Y-59225908D01*
X70157483Y-59225908D01*
X70097883Y-59219501D01*
X70097881Y-59219500D01*
X70097873Y-59219500D01*
X70097864Y-59219500D01*
X68002129Y-59219500D01*
X68002123Y-59219501D01*
X67942516Y-59225908D01*
X67807671Y-59276202D01*
X67807664Y-59276206D01*
X67692455Y-59362452D01*
X67692452Y-59362455D01*
X67606206Y-59477664D01*
X67606202Y-59477671D01*
X67555908Y-59612517D01*
X67549501Y-59672116D01*
X67549501Y-59672123D01*
X67549500Y-59672135D01*
X50500500Y-59672135D01*
X50500500Y-58639999D01*
X76661127Y-58639999D01*
X76661128Y-58640000D01*
X77624314Y-58640000D01*
X77619920Y-58644394D01*
X77567259Y-58735606D01*
X77540000Y-58837339D01*
X77540000Y-58942661D01*
X77567259Y-59044394D01*
X77619920Y-59135606D01*
X77624314Y-59140000D01*
X76661128Y-59140000D01*
X76713730Y-59336317D01*
X76713734Y-59336326D01*
X76809865Y-59542482D01*
X76940342Y-59728820D01*
X77101179Y-59889657D01*
X77287517Y-60020134D01*
X77493673Y-60116265D01*
X77493682Y-60116269D01*
X77689999Y-60168872D01*
X77690000Y-60168871D01*
X77690000Y-59205686D01*
X77694394Y-59210080D01*
X77785606Y-59262741D01*
X77887339Y-59290000D01*
X77992661Y-59290000D01*
X78094394Y-59262741D01*
X78185606Y-59210080D01*
X78190000Y-59205686D01*
X78190000Y-60168872D01*
X78386317Y-60116269D01*
X78386326Y-60116265D01*
X78592482Y-60020134D01*
X78778820Y-59889657D01*
X78939657Y-59728820D01*
X79070134Y-59542482D01*
X79166265Y-59336326D01*
X79166269Y-59336317D01*
X79218872Y-59140000D01*
X78255686Y-59140000D01*
X78260080Y-59135606D01*
X78312741Y-59044394D01*
X78340000Y-58942661D01*
X78340000Y-58837339D01*
X78312741Y-58735606D01*
X78260080Y-58644394D01*
X78255686Y-58640000D01*
X79218872Y-58640000D01*
X79218872Y-58639999D01*
X79166269Y-58443682D01*
X79166265Y-58443673D01*
X79070134Y-58237517D01*
X78939657Y-58051179D01*
X78778820Y-57890342D01*
X78592482Y-57759865D01*
X78386328Y-57663734D01*
X78190000Y-57611127D01*
X78190000Y-58574314D01*
X78185606Y-58569920D01*
X78094394Y-58517259D01*
X77992661Y-58490000D01*
X77887339Y-58490000D01*
X77785606Y-58517259D01*
X77694394Y-58569920D01*
X77690000Y-58574314D01*
X77690000Y-57611127D01*
X77493671Y-57663734D01*
X77287517Y-57759865D01*
X77101179Y-57890342D01*
X76940342Y-58051179D01*
X76809865Y-58237517D01*
X76713734Y-58443673D01*
X76713730Y-58443682D01*
X76661127Y-58639999D01*
X50500500Y-58639999D01*
X50500500Y-55079999D01*
X53724341Y-55079999D01*
X53724341Y-55080000D01*
X53744936Y-55315403D01*
X53744938Y-55315413D01*
X53806094Y-55543655D01*
X53806096Y-55543659D01*
X53806097Y-55543663D01*
X53885801Y-55714588D01*
X53905965Y-55757830D01*
X53905967Y-55757834D01*
X54014281Y-55912521D01*
X54041505Y-55951401D01*
X54208599Y-56118495D01*
X54305384Y-56186265D01*
X54402165Y-56254032D01*
X54402167Y-56254033D01*
X54402170Y-56254035D01*
X54616337Y-56353903D01*
X54844592Y-56415063D01*
X55021034Y-56430500D01*
X55079999Y-56435659D01*
X55080000Y-56435659D01*
X55080001Y-56435659D01*
X55138966Y-56430500D01*
X55315408Y-56415063D01*
X55543663Y-56353903D01*
X55757830Y-56254035D01*
X55951401Y-56118495D01*
X56118495Y-55951401D01*
X56248425Y-55765842D01*
X56303002Y-55722217D01*
X56372500Y-55715023D01*
X56434855Y-55746546D01*
X56451575Y-55765842D01*
X56581500Y-55951395D01*
X56581505Y-55951401D01*
X56748599Y-56118495D01*
X56845384Y-56186265D01*
X56942165Y-56254032D01*
X56942167Y-56254033D01*
X56942170Y-56254035D01*
X57156337Y-56353903D01*
X57384592Y-56415063D01*
X57561034Y-56430500D01*
X57619999Y-56435659D01*
X57620000Y-56435659D01*
X57620001Y-56435659D01*
X57678966Y-56430500D01*
X57855408Y-56415063D01*
X58083663Y-56353903D01*
X58297830Y-56254035D01*
X58491401Y-56118495D01*
X58658495Y-55951401D01*
X58788730Y-55765405D01*
X58843307Y-55721781D01*
X58912805Y-55714587D01*
X58975160Y-55746110D01*
X58991879Y-55765405D01*
X59121890Y-55951078D01*
X59288917Y-56118105D01*
X59482421Y-56253600D01*
X59696507Y-56353429D01*
X59696516Y-56353433D01*
X59910000Y-56410634D01*
X59910000Y-55513012D01*
X59967007Y-55545925D01*
X60094174Y-55580000D01*
X60225826Y-55580000D01*
X60352993Y-55545925D01*
X60410000Y-55513012D01*
X60410000Y-56410633D01*
X60623483Y-56353433D01*
X60623492Y-56353429D01*
X60837578Y-56253600D01*
X61031082Y-56118105D01*
X61198105Y-55951082D01*
X61328119Y-55765405D01*
X61382696Y-55721781D01*
X61452195Y-55714588D01*
X61514549Y-55746110D01*
X61531269Y-55765405D01*
X61661505Y-55951401D01*
X61828599Y-56118495D01*
X61925384Y-56186265D01*
X62022165Y-56254032D01*
X62022167Y-56254033D01*
X62022170Y-56254035D01*
X62236337Y-56353903D01*
X62464592Y-56415063D01*
X62641034Y-56430500D01*
X62699999Y-56435659D01*
X62700000Y-56435659D01*
X62700001Y-56435659D01*
X62758966Y-56430500D01*
X62935408Y-56415063D01*
X63163663Y-56353903D01*
X63377830Y-56254035D01*
X63571401Y-56118495D01*
X63738495Y-55951401D01*
X63868425Y-55765842D01*
X63923002Y-55722217D01*
X63992500Y-55715023D01*
X64054855Y-55746546D01*
X64071575Y-55765842D01*
X64201500Y-55951395D01*
X64201505Y-55951401D01*
X64368599Y-56118495D01*
X64465384Y-56186265D01*
X64562165Y-56254032D01*
X64562167Y-56254033D01*
X64562170Y-56254035D01*
X64776337Y-56353903D01*
X65004592Y-56415063D01*
X65181034Y-56430500D01*
X65239999Y-56435659D01*
X65240000Y-56435659D01*
X65240001Y-56435659D01*
X65298966Y-56430500D01*
X65475408Y-56415063D01*
X65703663Y-56353903D01*
X65917830Y-56254035D01*
X66111401Y-56118495D01*
X66278495Y-55951401D01*
X66408425Y-55765842D01*
X66463002Y-55722217D01*
X66532500Y-55715023D01*
X66594855Y-55746546D01*
X66611575Y-55765842D01*
X66741500Y-55951395D01*
X66741505Y-55951401D01*
X66908599Y-56118495D01*
X67005384Y-56186265D01*
X67102165Y-56254032D01*
X67102167Y-56254033D01*
X67102170Y-56254035D01*
X67316337Y-56353903D01*
X67544592Y-56415063D01*
X67721034Y-56430500D01*
X67779999Y-56435659D01*
X67780000Y-56435659D01*
X67780001Y-56435659D01*
X67838966Y-56430500D01*
X68015408Y-56415063D01*
X68243663Y-56353903D01*
X68457830Y-56254035D01*
X68651401Y-56118495D01*
X68818495Y-55951401D01*
X68948425Y-55765842D01*
X69003002Y-55722217D01*
X69072500Y-55715023D01*
X69134855Y-55746546D01*
X69151575Y-55765842D01*
X69281500Y-55951395D01*
X69281505Y-55951401D01*
X69448599Y-56118495D01*
X69545384Y-56186265D01*
X69642165Y-56254032D01*
X69642167Y-56254033D01*
X69642170Y-56254035D01*
X69856337Y-56353903D01*
X70084592Y-56415063D01*
X70261034Y-56430500D01*
X70319999Y-56435659D01*
X70320000Y-56435659D01*
X70320001Y-56435659D01*
X70378966Y-56430500D01*
X70555408Y-56415063D01*
X70783663Y-56353903D01*
X70997830Y-56254035D01*
X71191401Y-56118495D01*
X71358495Y-55951401D01*
X71488730Y-55765405D01*
X71543307Y-55721781D01*
X71612805Y-55714587D01*
X71675160Y-55746110D01*
X71691879Y-55765405D01*
X71821890Y-55951078D01*
X71988917Y-56118105D01*
X72182421Y-56253600D01*
X72396507Y-56353429D01*
X72396516Y-56353433D01*
X72610000Y-56410634D01*
X72610000Y-55513012D01*
X72667007Y-55545925D01*
X72794174Y-55580000D01*
X72925826Y-55580000D01*
X73052993Y-55545925D01*
X73110000Y-55513012D01*
X73110000Y-56410633D01*
X73323483Y-56353433D01*
X73323492Y-56353429D01*
X73537578Y-56253600D01*
X73731082Y-56118105D01*
X73898105Y-55951082D01*
X74028119Y-55765405D01*
X74082696Y-55721781D01*
X74152195Y-55714588D01*
X74214549Y-55746110D01*
X74231269Y-55765405D01*
X74361505Y-55951401D01*
X74528599Y-56118495D01*
X74625384Y-56186265D01*
X74722165Y-56254032D01*
X74722167Y-56254033D01*
X74722170Y-56254035D01*
X74936337Y-56353903D01*
X75164592Y-56415063D01*
X75341034Y-56430500D01*
X75399999Y-56435659D01*
X75400000Y-56435659D01*
X75400001Y-56435659D01*
X75458966Y-56430500D01*
X75635408Y-56415063D01*
X75863663Y-56353903D01*
X76077830Y-56254035D01*
X76271401Y-56118495D01*
X76438495Y-55951401D01*
X76568425Y-55765842D01*
X76623002Y-55722217D01*
X76692500Y-55715023D01*
X76754855Y-55746546D01*
X76771575Y-55765842D01*
X76901500Y-55951395D01*
X76901505Y-55951401D01*
X77068599Y-56118495D01*
X77165384Y-56186265D01*
X77262165Y-56254032D01*
X77262167Y-56254033D01*
X77262170Y-56254035D01*
X77476337Y-56353903D01*
X77704592Y-56415063D01*
X77881034Y-56430500D01*
X77939999Y-56435659D01*
X77940000Y-56435659D01*
X77940001Y-56435659D01*
X77998966Y-56430500D01*
X78175408Y-56415063D01*
X78403663Y-56353903D01*
X78617830Y-56254035D01*
X78811401Y-56118495D01*
X78978495Y-55951401D01*
X79108425Y-55765842D01*
X79163002Y-55722217D01*
X79232500Y-55715023D01*
X79294855Y-55746546D01*
X79311575Y-55765842D01*
X79441500Y-55951395D01*
X79441505Y-55951401D01*
X79608599Y-56118495D01*
X79705384Y-56186265D01*
X79802165Y-56254032D01*
X79802167Y-56254033D01*
X79802170Y-56254035D01*
X80016337Y-56353903D01*
X80244592Y-56415063D01*
X80421034Y-56430500D01*
X80479999Y-56435659D01*
X80480000Y-56435659D01*
X80480001Y-56435659D01*
X80538966Y-56430500D01*
X80715408Y-56415063D01*
X80943663Y-56353903D01*
X81157830Y-56254035D01*
X81351401Y-56118495D01*
X81518495Y-55951401D01*
X81648425Y-55765842D01*
X81703002Y-55722217D01*
X81772500Y-55715023D01*
X81834855Y-55746546D01*
X81851575Y-55765842D01*
X81981500Y-55951395D01*
X81981505Y-55951401D01*
X82148599Y-56118495D01*
X82245384Y-56186265D01*
X82342165Y-56254032D01*
X82342167Y-56254033D01*
X82342170Y-56254035D01*
X82556337Y-56353903D01*
X82784592Y-56415063D01*
X82961034Y-56430500D01*
X83019999Y-56435659D01*
X83020000Y-56435659D01*
X83020001Y-56435659D01*
X83078966Y-56430500D01*
X83255408Y-56415063D01*
X83483663Y-56353903D01*
X83697830Y-56254035D01*
X83891401Y-56118495D01*
X84058495Y-55951401D01*
X84188730Y-55765405D01*
X84243307Y-55721781D01*
X84312805Y-55714587D01*
X84375160Y-55746110D01*
X84391879Y-55765405D01*
X84521890Y-55951078D01*
X84688917Y-56118105D01*
X84882421Y-56253600D01*
X85096507Y-56353429D01*
X85096516Y-56353433D01*
X85310000Y-56410634D01*
X85310000Y-55513012D01*
X85367007Y-55545925D01*
X85494174Y-55580000D01*
X85625826Y-55580000D01*
X85752993Y-55545925D01*
X85810000Y-55513012D01*
X85810000Y-56410633D01*
X86023483Y-56353433D01*
X86023492Y-56353429D01*
X86237578Y-56253600D01*
X86431082Y-56118105D01*
X86598105Y-55951082D01*
X86728119Y-55765405D01*
X86782696Y-55721781D01*
X86852195Y-55714588D01*
X86914549Y-55746110D01*
X86931269Y-55765405D01*
X87061505Y-55951401D01*
X87228599Y-56118495D01*
X87325384Y-56186265D01*
X87422165Y-56254032D01*
X87422167Y-56254033D01*
X87422170Y-56254035D01*
X87636337Y-56353903D01*
X87864592Y-56415063D01*
X88041034Y-56430500D01*
X88099999Y-56435659D01*
X88100000Y-56435659D01*
X88100001Y-56435659D01*
X88158966Y-56430500D01*
X88335408Y-56415063D01*
X88563663Y-56353903D01*
X88777830Y-56254035D01*
X88971401Y-56118495D01*
X89138495Y-55951401D01*
X89268425Y-55765842D01*
X89323002Y-55722217D01*
X89392500Y-55715023D01*
X89454855Y-55746546D01*
X89471575Y-55765842D01*
X89601500Y-55951395D01*
X89601505Y-55951401D01*
X89768599Y-56118495D01*
X89865384Y-56186265D01*
X89962165Y-56254032D01*
X89962167Y-56254033D01*
X89962170Y-56254035D01*
X90176337Y-56353903D01*
X90404592Y-56415063D01*
X90581034Y-56430500D01*
X90639999Y-56435659D01*
X90640000Y-56435659D01*
X90640001Y-56435659D01*
X90698966Y-56430500D01*
X90875408Y-56415063D01*
X91103663Y-56353903D01*
X91317830Y-56254035D01*
X91511401Y-56118495D01*
X91678495Y-55951401D01*
X91808425Y-55765842D01*
X91863002Y-55722217D01*
X91932500Y-55715023D01*
X91994855Y-55746546D01*
X92011575Y-55765842D01*
X92141500Y-55951395D01*
X92141505Y-55951401D01*
X92308599Y-56118495D01*
X92405384Y-56186265D01*
X92502165Y-56254032D01*
X92502167Y-56254033D01*
X92502170Y-56254035D01*
X92716337Y-56353903D01*
X92944592Y-56415063D01*
X93121034Y-56430500D01*
X93179999Y-56435659D01*
X93180000Y-56435659D01*
X93180001Y-56435659D01*
X93238966Y-56430500D01*
X93415408Y-56415063D01*
X93643663Y-56353903D01*
X93857830Y-56254035D01*
X94051401Y-56118495D01*
X94218495Y-55951401D01*
X94348425Y-55765842D01*
X94403002Y-55722217D01*
X94472500Y-55715023D01*
X94534855Y-55746546D01*
X94551575Y-55765842D01*
X94681500Y-55951395D01*
X94681505Y-55951401D01*
X94848599Y-56118495D01*
X94945384Y-56186265D01*
X95042165Y-56254032D01*
X95042167Y-56254033D01*
X95042170Y-56254035D01*
X95256337Y-56353903D01*
X95484592Y-56415063D01*
X95661034Y-56430500D01*
X95719999Y-56435659D01*
X95720000Y-56435659D01*
X95720001Y-56435659D01*
X95778966Y-56430500D01*
X95955408Y-56415063D01*
X96183663Y-56353903D01*
X96397830Y-56254035D01*
X96591401Y-56118495D01*
X96758495Y-55951401D01*
X96888730Y-55765405D01*
X96943307Y-55721781D01*
X97012805Y-55714587D01*
X97075160Y-55746110D01*
X97091879Y-55765405D01*
X97221890Y-55951078D01*
X97388917Y-56118105D01*
X97582421Y-56253600D01*
X97796507Y-56353429D01*
X97796516Y-56353433D01*
X98010000Y-56410634D01*
X98010000Y-55513012D01*
X98067007Y-55545925D01*
X98194174Y-55580000D01*
X98325826Y-55580000D01*
X98452993Y-55545925D01*
X98510000Y-55513012D01*
X98510000Y-56410633D01*
X98723483Y-56353433D01*
X98723492Y-56353429D01*
X98937578Y-56253600D01*
X99131082Y-56118105D01*
X99298105Y-55951082D01*
X99428119Y-55765405D01*
X99482696Y-55721781D01*
X99552195Y-55714588D01*
X99614549Y-55746110D01*
X99631269Y-55765405D01*
X99761505Y-55951401D01*
X99928599Y-56118495D01*
X100025384Y-56186265D01*
X100122165Y-56254032D01*
X100122167Y-56254033D01*
X100122170Y-56254035D01*
X100336337Y-56353903D01*
X100564592Y-56415063D01*
X100741034Y-56430500D01*
X100799999Y-56435659D01*
X100800000Y-56435659D01*
X100800001Y-56435659D01*
X100858966Y-56430500D01*
X101035408Y-56415063D01*
X101263663Y-56353903D01*
X101477830Y-56254035D01*
X101671401Y-56118495D01*
X101793329Y-55996566D01*
X101854648Y-55963084D01*
X101924340Y-55968068D01*
X101980274Y-56009939D01*
X101997189Y-56040917D01*
X102046202Y-56172328D01*
X102046206Y-56172335D01*
X102132452Y-56287544D01*
X102132455Y-56287547D01*
X102247664Y-56373793D01*
X102247671Y-56373797D01*
X102382517Y-56424091D01*
X102382516Y-56424091D01*
X102389444Y-56424835D01*
X102442127Y-56430500D01*
X104237872Y-56430499D01*
X104297483Y-56424091D01*
X104432331Y-56373796D01*
X104547546Y-56287546D01*
X104633796Y-56172331D01*
X104684091Y-56037483D01*
X104690500Y-55977873D01*
X104690499Y-54182128D01*
X104684091Y-54122517D01*
X104682810Y-54119083D01*
X104633797Y-53987671D01*
X104633793Y-53987664D01*
X104547547Y-53872455D01*
X104547544Y-53872452D01*
X104432335Y-53786206D01*
X104432328Y-53786202D01*
X104297482Y-53735908D01*
X104297483Y-53735908D01*
X104237883Y-53729501D01*
X104237881Y-53729500D01*
X104237873Y-53729500D01*
X104237864Y-53729500D01*
X102442129Y-53729500D01*
X102442123Y-53729501D01*
X102382516Y-53735908D01*
X102247671Y-53786202D01*
X102247664Y-53786206D01*
X102132455Y-53872452D01*
X102132452Y-53872455D01*
X102046206Y-53987664D01*
X102046203Y-53987669D01*
X101997189Y-54119083D01*
X101955317Y-54175016D01*
X101889853Y-54199433D01*
X101821580Y-54184581D01*
X101793326Y-54163430D01*
X101671402Y-54041506D01*
X101671395Y-54041501D01*
X101477834Y-53905967D01*
X101477830Y-53905965D01*
X101477828Y-53905964D01*
X101263663Y-53806097D01*
X101263659Y-53806096D01*
X101263655Y-53806094D01*
X101035413Y-53744938D01*
X101035403Y-53744936D01*
X100800001Y-53724341D01*
X100799999Y-53724341D01*
X100564596Y-53744936D01*
X100564586Y-53744938D01*
X100336344Y-53806094D01*
X100336335Y-53806098D01*
X100122171Y-53905964D01*
X100122169Y-53905965D01*
X99928597Y-54041505D01*
X99761508Y-54208594D01*
X99631269Y-54394595D01*
X99576692Y-54438219D01*
X99507193Y-54445412D01*
X99444839Y-54413890D01*
X99428119Y-54394594D01*
X99298113Y-54208926D01*
X99298108Y-54208920D01*
X99131082Y-54041894D01*
X98937578Y-53906399D01*
X98723492Y-53806570D01*
X98723486Y-53806567D01*
X98510000Y-53749364D01*
X98510000Y-54646988D01*
X98452993Y-54614075D01*
X98325826Y-54580000D01*
X98194174Y-54580000D01*
X98067007Y-54614075D01*
X98010000Y-54646988D01*
X98010000Y-53749364D01*
X98009999Y-53749364D01*
X97796513Y-53806567D01*
X97796507Y-53806570D01*
X97582422Y-53906399D01*
X97582420Y-53906400D01*
X97388926Y-54041886D01*
X97388920Y-54041891D01*
X97221891Y-54208920D01*
X97221890Y-54208922D01*
X97091880Y-54394595D01*
X97037303Y-54438219D01*
X96967804Y-54445412D01*
X96905450Y-54413890D01*
X96888730Y-54394594D01*
X96758494Y-54208597D01*
X96591402Y-54041506D01*
X96591395Y-54041501D01*
X96397834Y-53905967D01*
X96397830Y-53905965D01*
X96397828Y-53905964D01*
X96183663Y-53806097D01*
X96183659Y-53806096D01*
X96183655Y-53806094D01*
X95955413Y-53744938D01*
X95955403Y-53744936D01*
X95720001Y-53724341D01*
X95719999Y-53724341D01*
X95484596Y-53744936D01*
X95484586Y-53744938D01*
X95256344Y-53806094D01*
X95256335Y-53806098D01*
X95042171Y-53905964D01*
X95042169Y-53905965D01*
X94848597Y-54041505D01*
X94681505Y-54208597D01*
X94551575Y-54394158D01*
X94496998Y-54437783D01*
X94427500Y-54444977D01*
X94365145Y-54413454D01*
X94348425Y-54394158D01*
X94218494Y-54208597D01*
X94051402Y-54041506D01*
X94051395Y-54041501D01*
X93857834Y-53905967D01*
X93857830Y-53905965D01*
X93857828Y-53905964D01*
X93643663Y-53806097D01*
X93643659Y-53806096D01*
X93643655Y-53806094D01*
X93415413Y-53744938D01*
X93415403Y-53744936D01*
X93180001Y-53724341D01*
X93179999Y-53724341D01*
X92944596Y-53744936D01*
X92944586Y-53744938D01*
X92716344Y-53806094D01*
X92716335Y-53806098D01*
X92502171Y-53905964D01*
X92502169Y-53905965D01*
X92308597Y-54041505D01*
X92141505Y-54208597D01*
X92011575Y-54394158D01*
X91956998Y-54437783D01*
X91887500Y-54444977D01*
X91825145Y-54413454D01*
X91808425Y-54394158D01*
X91678494Y-54208597D01*
X91511402Y-54041506D01*
X91511395Y-54041501D01*
X91317834Y-53905967D01*
X91317830Y-53905965D01*
X91317828Y-53905964D01*
X91103663Y-53806097D01*
X91103659Y-53806096D01*
X91103655Y-53806094D01*
X90875413Y-53744938D01*
X90875403Y-53744936D01*
X90640001Y-53724341D01*
X90639999Y-53724341D01*
X90404596Y-53744936D01*
X90404586Y-53744938D01*
X90176344Y-53806094D01*
X90176335Y-53806098D01*
X89962171Y-53905964D01*
X89962169Y-53905965D01*
X89768597Y-54041505D01*
X89601505Y-54208597D01*
X89471575Y-54394158D01*
X89416998Y-54437783D01*
X89347500Y-54444977D01*
X89285145Y-54413454D01*
X89268425Y-54394158D01*
X89138494Y-54208597D01*
X88971402Y-54041506D01*
X88971395Y-54041501D01*
X88777834Y-53905967D01*
X88777830Y-53905965D01*
X88777828Y-53905964D01*
X88563663Y-53806097D01*
X88563659Y-53806096D01*
X88563655Y-53806094D01*
X88335413Y-53744938D01*
X88335403Y-53744936D01*
X88100001Y-53724341D01*
X88099999Y-53724341D01*
X87864596Y-53744936D01*
X87864586Y-53744938D01*
X87636344Y-53806094D01*
X87636335Y-53806098D01*
X87422171Y-53905964D01*
X87422169Y-53905965D01*
X87228597Y-54041505D01*
X87061508Y-54208594D01*
X86931269Y-54394595D01*
X86876692Y-54438219D01*
X86807193Y-54445412D01*
X86744839Y-54413890D01*
X86728119Y-54394594D01*
X86598113Y-54208926D01*
X86598108Y-54208920D01*
X86431082Y-54041894D01*
X86237578Y-53906399D01*
X86023492Y-53806570D01*
X86023486Y-53806567D01*
X85810000Y-53749364D01*
X85810000Y-54646988D01*
X85752993Y-54614075D01*
X85625826Y-54580000D01*
X85494174Y-54580000D01*
X85367007Y-54614075D01*
X85310000Y-54646988D01*
X85310000Y-53749364D01*
X85309999Y-53749364D01*
X85096513Y-53806567D01*
X85096507Y-53806570D01*
X84882422Y-53906399D01*
X84882420Y-53906400D01*
X84688926Y-54041886D01*
X84688920Y-54041891D01*
X84521891Y-54208920D01*
X84521890Y-54208922D01*
X84391880Y-54394595D01*
X84337303Y-54438219D01*
X84267804Y-54445412D01*
X84205450Y-54413890D01*
X84188730Y-54394594D01*
X84058494Y-54208597D01*
X83891402Y-54041506D01*
X83891395Y-54041501D01*
X83697834Y-53905967D01*
X83697830Y-53905965D01*
X83697828Y-53905964D01*
X83483663Y-53806097D01*
X83483659Y-53806096D01*
X83483655Y-53806094D01*
X83255413Y-53744938D01*
X83255403Y-53744936D01*
X83020001Y-53724341D01*
X83019999Y-53724341D01*
X82784596Y-53744936D01*
X82784586Y-53744938D01*
X82556344Y-53806094D01*
X82556335Y-53806098D01*
X82342171Y-53905964D01*
X82342169Y-53905965D01*
X82148597Y-54041505D01*
X81981505Y-54208597D01*
X81851575Y-54394158D01*
X81796998Y-54437783D01*
X81727500Y-54444977D01*
X81665145Y-54413454D01*
X81648425Y-54394158D01*
X81518494Y-54208597D01*
X81351402Y-54041506D01*
X81351395Y-54041501D01*
X81157834Y-53905967D01*
X81157830Y-53905965D01*
X81157828Y-53905964D01*
X80943663Y-53806097D01*
X80943659Y-53806096D01*
X80943655Y-53806094D01*
X80715413Y-53744938D01*
X80715403Y-53744936D01*
X80480001Y-53724341D01*
X80479999Y-53724341D01*
X80244596Y-53744936D01*
X80244586Y-53744938D01*
X80016344Y-53806094D01*
X80016335Y-53806098D01*
X79802171Y-53905964D01*
X79802169Y-53905965D01*
X79608597Y-54041505D01*
X79441505Y-54208597D01*
X79311575Y-54394158D01*
X79256998Y-54437783D01*
X79187500Y-54444977D01*
X79125145Y-54413454D01*
X79108425Y-54394158D01*
X78978494Y-54208597D01*
X78811402Y-54041506D01*
X78811395Y-54041501D01*
X78617834Y-53905967D01*
X78617830Y-53905965D01*
X78617828Y-53905964D01*
X78403663Y-53806097D01*
X78403659Y-53806096D01*
X78403655Y-53806094D01*
X78175413Y-53744938D01*
X78175403Y-53744936D01*
X77940001Y-53724341D01*
X77939999Y-53724341D01*
X77704596Y-53744936D01*
X77704586Y-53744938D01*
X77476344Y-53806094D01*
X77476335Y-53806098D01*
X77262171Y-53905964D01*
X77262169Y-53905965D01*
X77068597Y-54041505D01*
X76901505Y-54208597D01*
X76771575Y-54394158D01*
X76716998Y-54437783D01*
X76647500Y-54444977D01*
X76585145Y-54413454D01*
X76568425Y-54394158D01*
X76438494Y-54208597D01*
X76271402Y-54041506D01*
X76271395Y-54041501D01*
X76077834Y-53905967D01*
X76077830Y-53905965D01*
X76077828Y-53905964D01*
X75863663Y-53806097D01*
X75863659Y-53806096D01*
X75863655Y-53806094D01*
X75635413Y-53744938D01*
X75635403Y-53744936D01*
X75400001Y-53724341D01*
X75399999Y-53724341D01*
X75164596Y-53744936D01*
X75164586Y-53744938D01*
X74936344Y-53806094D01*
X74936335Y-53806098D01*
X74722171Y-53905964D01*
X74722169Y-53905965D01*
X74528597Y-54041505D01*
X74361508Y-54208594D01*
X74231269Y-54394595D01*
X74176692Y-54438219D01*
X74107193Y-54445412D01*
X74044839Y-54413890D01*
X74028119Y-54394594D01*
X73898113Y-54208926D01*
X73898108Y-54208920D01*
X73731082Y-54041894D01*
X73537578Y-53906399D01*
X73323492Y-53806570D01*
X73323486Y-53806567D01*
X73110000Y-53749364D01*
X73110000Y-54646988D01*
X73052993Y-54614075D01*
X72925826Y-54580000D01*
X72794174Y-54580000D01*
X72667007Y-54614075D01*
X72610000Y-54646988D01*
X72610000Y-53749364D01*
X72609999Y-53749364D01*
X72396513Y-53806567D01*
X72396507Y-53806570D01*
X72182422Y-53906399D01*
X72182420Y-53906400D01*
X71988926Y-54041886D01*
X71988920Y-54041891D01*
X71821891Y-54208920D01*
X71821890Y-54208922D01*
X71691880Y-54394595D01*
X71637303Y-54438219D01*
X71567804Y-54445412D01*
X71505450Y-54413890D01*
X71488730Y-54394594D01*
X71358494Y-54208597D01*
X71191402Y-54041506D01*
X71191395Y-54041501D01*
X70997834Y-53905967D01*
X70997830Y-53905965D01*
X70997828Y-53905964D01*
X70783663Y-53806097D01*
X70783659Y-53806096D01*
X70783655Y-53806094D01*
X70555413Y-53744938D01*
X70555403Y-53744936D01*
X70320001Y-53724341D01*
X70319999Y-53724341D01*
X70084596Y-53744936D01*
X70084586Y-53744938D01*
X69856344Y-53806094D01*
X69856335Y-53806098D01*
X69642171Y-53905964D01*
X69642169Y-53905965D01*
X69448597Y-54041505D01*
X69281505Y-54208597D01*
X69151575Y-54394158D01*
X69096998Y-54437783D01*
X69027500Y-54444977D01*
X68965145Y-54413454D01*
X68948425Y-54394158D01*
X68818494Y-54208597D01*
X68651402Y-54041506D01*
X68651395Y-54041501D01*
X68457834Y-53905967D01*
X68457830Y-53905965D01*
X68457828Y-53905964D01*
X68243663Y-53806097D01*
X68243659Y-53806096D01*
X68243655Y-53806094D01*
X68015413Y-53744938D01*
X68015403Y-53744936D01*
X67780001Y-53724341D01*
X67779999Y-53724341D01*
X67544596Y-53744936D01*
X67544586Y-53744938D01*
X67316344Y-53806094D01*
X67316335Y-53806098D01*
X67102171Y-53905964D01*
X67102169Y-53905965D01*
X66908597Y-54041505D01*
X66741505Y-54208597D01*
X66611575Y-54394158D01*
X66556998Y-54437783D01*
X66487500Y-54444977D01*
X66425145Y-54413454D01*
X66408425Y-54394158D01*
X66278494Y-54208597D01*
X66111402Y-54041506D01*
X66111395Y-54041501D01*
X65917834Y-53905967D01*
X65917830Y-53905965D01*
X65917828Y-53905964D01*
X65703663Y-53806097D01*
X65703659Y-53806096D01*
X65703655Y-53806094D01*
X65475413Y-53744938D01*
X65475403Y-53744936D01*
X65240001Y-53724341D01*
X65239999Y-53724341D01*
X65004596Y-53744936D01*
X65004586Y-53744938D01*
X64776344Y-53806094D01*
X64776335Y-53806098D01*
X64562171Y-53905964D01*
X64562169Y-53905965D01*
X64368597Y-54041505D01*
X64201505Y-54208597D01*
X64071575Y-54394158D01*
X64016998Y-54437783D01*
X63947500Y-54444977D01*
X63885145Y-54413454D01*
X63868425Y-54394158D01*
X63738494Y-54208597D01*
X63571402Y-54041506D01*
X63571395Y-54041501D01*
X63377834Y-53905967D01*
X63377830Y-53905965D01*
X63377828Y-53905964D01*
X63163663Y-53806097D01*
X63163659Y-53806096D01*
X63163655Y-53806094D01*
X62935413Y-53744938D01*
X62935403Y-53744936D01*
X62700001Y-53724341D01*
X62699999Y-53724341D01*
X62464596Y-53744936D01*
X62464586Y-53744938D01*
X62236344Y-53806094D01*
X62236335Y-53806098D01*
X62022171Y-53905964D01*
X62022169Y-53905965D01*
X61828597Y-54041505D01*
X61661508Y-54208594D01*
X61531269Y-54394595D01*
X61476692Y-54438219D01*
X61407193Y-54445412D01*
X61344839Y-54413890D01*
X61328119Y-54394594D01*
X61198113Y-54208926D01*
X61198108Y-54208920D01*
X61031082Y-54041894D01*
X60837578Y-53906399D01*
X60623492Y-53806570D01*
X60623486Y-53806567D01*
X60410000Y-53749364D01*
X60410000Y-54646988D01*
X60352993Y-54614075D01*
X60225826Y-54580000D01*
X60094174Y-54580000D01*
X59967007Y-54614075D01*
X59910000Y-54646988D01*
X59910000Y-53749364D01*
X59909999Y-53749364D01*
X59696513Y-53806567D01*
X59696507Y-53806570D01*
X59482422Y-53906399D01*
X59482420Y-53906400D01*
X59288926Y-54041886D01*
X59288920Y-54041891D01*
X59121891Y-54208920D01*
X59121890Y-54208922D01*
X58991880Y-54394595D01*
X58937303Y-54438219D01*
X58867804Y-54445412D01*
X58805450Y-54413890D01*
X58788730Y-54394594D01*
X58658494Y-54208597D01*
X58491402Y-54041506D01*
X58491395Y-54041501D01*
X58297834Y-53905967D01*
X58297830Y-53905965D01*
X58297828Y-53905964D01*
X58083663Y-53806097D01*
X58083659Y-53806096D01*
X58083655Y-53806094D01*
X57855413Y-53744938D01*
X57855403Y-53744936D01*
X57620001Y-53724341D01*
X57619999Y-53724341D01*
X57384596Y-53744936D01*
X57384586Y-53744938D01*
X57156344Y-53806094D01*
X57156335Y-53806098D01*
X56942171Y-53905964D01*
X56942169Y-53905965D01*
X56748597Y-54041505D01*
X56581505Y-54208597D01*
X56451575Y-54394158D01*
X56396998Y-54437783D01*
X56327500Y-54444977D01*
X56265145Y-54413454D01*
X56248425Y-54394158D01*
X56118494Y-54208597D01*
X55951402Y-54041506D01*
X55951395Y-54041501D01*
X55757834Y-53905967D01*
X55757830Y-53905965D01*
X55757828Y-53905964D01*
X55543663Y-53806097D01*
X55543659Y-53806096D01*
X55543655Y-53806094D01*
X55315413Y-53744938D01*
X55315403Y-53744936D01*
X55080001Y-53724341D01*
X55079999Y-53724341D01*
X54844596Y-53744936D01*
X54844586Y-53744938D01*
X54616344Y-53806094D01*
X54616335Y-53806098D01*
X54402171Y-53905964D01*
X54402169Y-53905965D01*
X54208597Y-54041505D01*
X54041505Y-54208597D01*
X53905965Y-54402169D01*
X53905964Y-54402171D01*
X53806098Y-54616335D01*
X53806094Y-54616344D01*
X53744938Y-54844586D01*
X53744936Y-54844596D01*
X53724341Y-55079999D01*
X50500500Y-55079999D01*
X50500500Y-50624500D01*
X50520185Y-50557461D01*
X50572989Y-50511706D01*
X50624500Y-50500500D01*
X107795500Y-50500500D01*
X107862539Y-50520185D01*
G37*
%TD.AperFunction*%
%TD*%
M02*
