%TF.GenerationSoftware,KiCad,Pcbnew,8.0.2*%
%TF.CreationDate,2024-06-24T20:47:35+02:00*%
%TF.ProjectId,Ampel3,416d7065-6c33-42e6-9b69-6361645f7063,rev?*%
%TF.SameCoordinates,Original*%
%TF.FileFunction,Soldermask,Top*%
%TF.FilePolarity,Negative*%
%FSLAX46Y46*%
G04 Gerber Fmt 4.6, Leading zero omitted, Abs format (unit mm)*
G04 Created by KiCad (PCBNEW 8.0.2) date 2024-06-24 20:47:35*
%MOMM*%
%LPD*%
G01*
G04 APERTURE LIST*
%ADD10C,1.600000*%
%ADD11O,1.600000X1.600000*%
%ADD12R,1.600000X1.600000*%
%ADD13R,2.000000X2.000000*%
%ADD14C,2.000000*%
%ADD15R,1.800000X1.800000*%
%ADD16C,1.800000*%
%ADD17R,1.700000X1.700000*%
%ADD18O,1.700000X1.700000*%
G04 APERTURE END LIST*
D10*
%TO.C,R2*%
X89370000Y-77940000D03*
D11*
X89370000Y-88100000D03*
%TD*%
D12*
%TO.C,RN1*%
X84290000Y-100800000D03*
D11*
X84290000Y-98260000D03*
X84290000Y-95720000D03*
X84290000Y-93180000D03*
X84290000Y-90640000D03*
X84290000Y-88100000D03*
X84290000Y-85560000D03*
X84290000Y-83020000D03*
%TD*%
D13*
%TO.C,BZ1*%
X69050000Y-60720000D03*
D14*
X69050000Y-67220000D03*
%TD*%
D15*
%TO.C,D3*%
X60160000Y-98260000D03*
D16*
X60160000Y-95720000D03*
%TD*%
D15*
%TO.C,T2*%
X96990000Y-83020000D03*
D16*
X96990000Y-80480000D03*
%TD*%
D17*
%TO.C,Pico_R1*%
X103340000Y-72860000D03*
D18*
X100800000Y-72860000D03*
X98260000Y-72860000D03*
X95720000Y-72860000D03*
X93180000Y-72860000D03*
X90640000Y-72860000D03*
X88100000Y-72860000D03*
X85560000Y-72860000D03*
X83020000Y-72860000D03*
X80480000Y-72860000D03*
X77940000Y-72860000D03*
X75400000Y-72860000D03*
X72860000Y-72860000D03*
X70320000Y-72860000D03*
X67780000Y-72860000D03*
X65240000Y-72860000D03*
X62700000Y-72860000D03*
X60160000Y-72860000D03*
X57620000Y-72860000D03*
X55080000Y-72860000D03*
%TD*%
D15*
%TO.C,D2*%
X60160000Y-90640000D03*
D16*
X60160000Y-88100000D03*
%TD*%
D15*
%TO.C,D5*%
X75400000Y-83020000D03*
D16*
X75400000Y-80480000D03*
%TD*%
D10*
%TO.C,R3*%
X77940000Y-69050000D03*
D11*
X77940000Y-58890000D03*
%TD*%
D17*
%TO.C,Pico_L1*%
X103340000Y-55080000D03*
D18*
X100800000Y-55080000D03*
X98260000Y-55080000D03*
X95720000Y-55080000D03*
X93180000Y-55080000D03*
X90640000Y-55080000D03*
X88100000Y-55080000D03*
X85560000Y-55080000D03*
X83020000Y-55080000D03*
X80480000Y-55080000D03*
X77940000Y-55080000D03*
X75400000Y-55080000D03*
X72860000Y-55080000D03*
X70320000Y-55080000D03*
X67780000Y-55080000D03*
X65240000Y-55080000D03*
X62700000Y-55080000D03*
X60160000Y-55080000D03*
X57620000Y-55080000D03*
X55080000Y-55080000D03*
%TD*%
D15*
%TO.C,D6*%
X75400000Y-90640000D03*
D16*
X75400000Y-88100000D03*
%TD*%
D15*
%TO.C,D7*%
X75400000Y-98260000D03*
D16*
X75400000Y-95720000D03*
%TD*%
D15*
%TO.C,D1*%
X60160000Y-83020000D03*
D16*
X60160000Y-80480000D03*
%TD*%
D14*
%TO.C,SW1*%
X93740000Y-96990000D03*
X100240000Y-96990000D03*
X93740000Y-101490000D03*
X100240000Y-101490000D03*
%TD*%
D15*
%TO.C,D4*%
X67780000Y-90640000D03*
D16*
X67780000Y-88100000D03*
%TD*%
D12*
%TO.C,IC1*%
X96730000Y-89370000D03*
D10*
X94190000Y-90640000D03*
D11*
X96730000Y-91910000D03*
%TD*%
D10*
%TO.C,R1*%
X89370000Y-91910000D03*
D11*
X89370000Y-102070000D03*
%TD*%
M02*
