M48
; DRILL file {KiCad 8.0.2} date 2024-06-24T20:47:36+0200
; FORMAT={-:-/ absolute / inch / decimal}
; #@! TF.CreationDate,2024-06-24T20:47:36+02:00
; #@! TF.GenerationSoftware,Kicad,Pcbnew,8.0.2
; #@! TF.FileFunction,Plated,1,2,PTH
FMAT,2
INCH
; #@! TA.AperFunction,Plated,PTH,ComponentDrill
T1C0.0315
; #@! TA.AperFunction,Plated,PTH,ComponentDrill
T2C0.0354
; #@! TA.AperFunction,Plated,PTH,ComponentDrill
T3C0.0394
; #@! TA.AperFunction,Plated,PTH,ComponentDrill
T4C0.0433
%
G90
G05
T1
X3.0685Y-2.3185
X3.0685Y-2.7185
X3.3185Y-3.2685
X3.3185Y-3.3685
X3.3185Y-3.4685
X3.3185Y-3.5685
X3.3185Y-3.6685
X3.3185Y-3.7685
X3.3185Y-3.8685
X3.3185Y-3.9685
X3.5185Y-3.0685
X3.5185Y-3.4685
X3.5185Y-3.6185
X3.5185Y-4.0185
X3.7083Y-3.5685
X3.8083Y-3.5185
X3.8083Y-3.6185
T2
X2.3685Y-3.1685
X2.3685Y-3.2685
X2.3685Y-3.4685
X2.3685Y-3.5685
X2.3685Y-3.7685
X2.3685Y-3.8685
X2.6685Y-3.4685
X2.6685Y-3.5685
X2.9685Y-3.1685
X2.9685Y-3.2685
X2.9685Y-3.4685
X2.9685Y-3.5685
X2.9685Y-3.7685
X2.9685Y-3.8685
X3.8185Y-3.1685
X3.8185Y-3.2685
T3
X2.1685Y-2.1685
X2.1685Y-2.8685
X2.2685Y-2.1685
X2.2685Y-2.8685
X2.3685Y-2.1685
X2.3685Y-2.8685
X2.4685Y-2.1685
X2.4685Y-2.8685
X2.5685Y-2.1685
X2.5685Y-2.8685
X2.6685Y-2.1685
X2.6685Y-2.8685
X2.7185Y-2.3906
X2.7185Y-2.6465
X2.7685Y-2.1685
X2.7685Y-2.8685
X2.8685Y-2.1685
X2.8685Y-2.8685
X2.9685Y-2.1685
X2.9685Y-2.8685
X3.0685Y-2.1685
X3.0685Y-2.8685
X3.1685Y-2.1685
X3.1685Y-2.8685
X3.2685Y-2.1685
X3.2685Y-2.8685
X3.3685Y-2.1685
X3.3685Y-2.8685
X3.4685Y-2.1685
X3.4685Y-2.8685
X3.5685Y-2.1685
X3.5685Y-2.8685
X3.6685Y-2.1685
X3.6685Y-2.8685
X3.7685Y-2.1685
X3.7685Y-2.8685
X3.8685Y-2.1685
X3.8685Y-2.8685
X3.9685Y-2.1685
X3.9685Y-2.8685
X4.0685Y-2.1685
X4.0685Y-2.8685
T4
X3.6906Y-3.8185
X3.6906Y-3.9957
X3.9465Y-3.8185
X3.9465Y-3.9957
M30
